<svg width="82" height="75" fill="none" xmlns="http://www.w3.org/2000/svg"><path d="M78.333 25H63.89v-4.444A5.562 5.562 0 0 0 58.333 15h-20a5.562 5.562 0 0 0-5.555 5.556V25H18.333A3.333 3.333 0 0 0 15 28.333v24.733a3.348 3.348 0 0 0 2.222 3.137v15.464A3.333 3.333 0 0 0 20.556 75H76.11a3.333 3.333 0 0 0 3.333-3.333V56.204a3.349 3.349 0 0 0 2.223-3.138V28.333A3.334 3.334 0 0 0 78.333 25zm-21.11 0h-17.78v-3.333h17.778V25z" fill="#00A86B" fill-opacity=".7"/><path d="M71.25 11.25H55v-5A6.257 6.257 0 0 0 48.75 0h-22.5A6.257 6.257 0 0 0 20 6.25v5H3.75A3.75 3.75 0 0 0 0 15v27.825a3.766 3.766 0 0 0 2.5 3.529V63.75a3.75 3.75 0 0 0 3.75 3.75h62.5a3.75 3.75 0 0 0 3.75-3.75V46.355a3.768 3.768 0 0 0 2.5-3.53V15a3.75 3.75 0 0 0-3.75-3.75zm-48.75-5a3.75 3.75 0 0 1 3.75-3.75h22.5a3.75 3.75 0 0 1 3.75 3.75v5H50v-5C50 5.56 49.44 5 48.75 5h-22.5C25.56 5 25 5.56 25 6.25v5h-2.5v-5zm25 5h-20V7.5h20v3.75zM70 63.75c0 .69-.56 1.25-1.25 1.25H6.25C5.56 65 5 64.44 5 63.75V46.783l27.5 3.793v3.174a3.75 3.75 0 0 0 3.75 3.75h2.5a3.75 3.75 0 0 0 3.75-3.75v-3.174L70 46.783V63.75zm-30-10c0 .69-.56 1.25-1.25 1.25h-2.5c-.69 0-1.25-.56-1.25-1.25v-7.5c0-.69.56-1.25 1.25-1.25h2.5c.69 0 1.25.56 1.25 1.25v7.5zm32.5-10.925a1.25 1.25 0 0 1-1.075 1.239l-.346.047L42.5 48.052V46.25a3.75 3.75 0 0 0-3.75-3.75h-2.5a3.75 3.75 0 0 0-3.75 3.75v1.802L3.576 44.064a1.25 1.25 0 0 1-1.076-1.24V15c0-.69.56-1.25 1.25-1.25h67.5c.69 0 1.25.56 1.25 1.25v27.825z" fill="#000"/></svg>