<svg width="78" height="75" fill="none" xmlns="http://www.w3.org/2000/svg"><path d="M67.739 34.707H15.888a.888.888 0 0 0-.888.886v24.89c0 .49.396.888.887.888h48.592a.889.889 0 0 0 0-1.777H16.777v-23.11h50.071V52.04c0 .49.397.888.887.888h.002c.49 0 .888-.396.889-.886V35.595a.888.888 0 0 0-.887-.888z" fill="#00A86B" fill-opacity=".7"/><path d="M61.71 34.58l-9.324-2.996-25.427-8.174-6.727-2.162a.892.892 0 0 0-1.063.674L15.76 35.255a.89.89 0 0 0 1.736.386l.24-.934 2.974-11.53 3.825 1.238 1.28.414 30.534 9.878 4.97 1.608a.889.889 0 0 0 .39-1.734z" fill="#00A86B" fill-opacity=".7"/><path d="M58.007 33.438l-26.22-18.37a.892.892 0 0 0-1.141.425l-6.074 8.148a.89.89 0 0 0 .36 1.208.891.891 0 0 0 1.235-.412v.002l.792-1.029 4.91-6.376 20.517 14.55 4.934 3.499a.891.891 0 0 0 .687-1.645zm-.705 5.417h-8.23a.889.889 0 0 0 0 1.777h8.23a.889.889 0 0 0 0-1.777zm-16.526.059a9.125 9.125 0 0 0-9.126 9.125 9.135 9.135 0 0 0 9.126 9.125 9.125 9.125 0 1 0 0-18.25zm0 16.591a7.466 7.466 0 0 1-7.466-7.466 7.474 7.474 0 0 1 7.466-7.466 7.466 7.466 0 1 1 0 14.932zm24.887-13.688c-5.496 0-11.407 1.298-11.407 4.148v24.887c0 2.85 5.911 4.148 11.407 4.148s11.407-1.298 11.407-4.148V45.965c0-2.645-5.095-3.954-10.222-4.128a36.07 36.07 0 0 0-1.185-.02zm9.333 29.02c-.157.575-3.267 2.09-9.333 2.09-6.066 0-9.176-1.515-9.333-2.075v-1.63c2.207 1.112 5.852 1.63 9.333 1.63s7.127-.523 9.333-1.631v1.616zm0-4.148c-.157.575-3.267 2.09-9.333 2.09-6.066 0-9.176-1.515-9.333-2.075v-1.63c2.207 1.112 5.852 1.63 9.333 1.63s7.127-.523 9.333-1.63v1.615zm0-4.148c-.157.575-3.267 2.09-9.333 2.09-6.066 0-9.176-1.515-9.333-2.075v-1.63c2.207 1.112 5.852 1.63 9.333 1.63s7.127-.523 9.333-1.63v1.615zm0-4.148c-.157.576-3.267 2.09-9.333 2.09-6.066 0-9.176-1.514-9.333-2.074v-1.63c2.207 1.111 5.852 1.63 9.333 1.63s7.127-.524 9.333-1.631v1.615zm0-4.148c-.157.576-3.267 2.09-9.333 2.09-6.066 0-9.176-1.514-9.333-2.074v-1.63c2.207 1.106 5.852 1.63 9.333 1.63s7.127-.524 9.333-1.631v1.615zm0-4.148c-.157.576-3.267 2.09-9.333 2.09-6.066 0-9.176-1.514-9.333-2.074v-1.63c2.207 1.106 5.852 1.63 9.333 1.63s7.127-.524 9.333-1.631v1.615zm-9.333-2.058c-6.057 0-9.166-1.51-9.333-2.055v-.007c.167-.577 3.276-2.086 9.333-2.086 6.014 0 9.125 1.487 9.333 2.074-.208.587-3.319 2.074-9.333 2.074z" fill="#00A86B" fill-opacity=".7"/><path d="M32.48 55.445h-7.838l-3.717-4.065v-6.74l4.104-4.008h7.451a.889.889 0 0 0 0-1.777h-7.81a.89.89 0 0 0-.622.252l-4.633 4.518a1.11 1.11 0 0 0-.267.726v7.375c0 .221.083.435.232.599l4.213 4.608c.169.184.407.29.657.29h8.231a.889.889 0 0 0 0-1.778zm8.814-8.443h-1.037c-.322 0-.518-.18-.518-.259 0-.079.196-.26.518-.26h2.593a1.037 1.037 0 0 0 0-2.073h-1.037a1.037 1.037 0 0 0-2.074 0v.047a2.414 2.414 0 0 0-2.074 2.28 2.476 2.476 0 0 0 2.592 2.34h1.037c.323 0 .519.18.519.258 0 .08-.196.26-.519.26h-2.592a1.037 1.037 0 0 0 0 2.074h1.037a1.037 1.037 0 0 0 2.074 0v-.047a2.414 2.414 0 0 0 2.074-2.281 2.476 2.476 0 0 0-2.593-2.339zm33.702 3.095c-.157.576-3.267 2.09-9.333 2.09-6.066 0-9.176-1.514-9.333-2.074v-1.63c2.207 1.106 5.852 1.63 9.333 1.63s7.127-.524 9.333-1.631v1.615zm-9.333-2.058c-6.057 0-9.166-1.51-9.333-2.055v-.007c.167-.577 3.276-2.086 9.333-2.086 6.014 0 9.125 1.487 9.333 2.074-.208.587-3.319 2.074-9.333 2.074zm9.333 6.206c-.157.576-3.267 2.09-9.333 2.09-6.066 0-9.176-1.514-9.333-2.074v-1.63c2.207 1.106 5.852 1.63 9.333 1.63s7.127-.524 9.333-1.631v1.615zm0 4.148c-.157.576-3.267 2.09-9.333 2.09-6.066 0-9.176-1.514-9.333-2.074v-1.63c2.207 1.111 5.852 1.63 9.333 1.63s7.127-.524 9.333-1.631v1.615zm0 4.147c-.157.576-3.267 2.09-9.333 2.09-6.066 0-9.176-1.514-9.333-2.074v-1.63c2.207 1.112 5.852 1.63 9.333 1.63s7.127-.523 9.333-1.63v1.615zm0 4.149c-.157.575-3.267 2.09-9.333 2.09-6.066 0-9.176-1.515-9.333-2.075v-1.63c2.207 1.112 5.852 1.63 9.333 1.63s7.127-.523 9.333-1.63v1.615zm0 4.148c-.157.575-3.267 2.09-9.333 2.09-6.066 0-9.176-1.515-9.333-2.075v-1.63c2.207 1.112 5.852 1.63 9.333 1.63s7.127-.523 9.333-1.631v1.616z" fill="#00A86B" fill-opacity=".7"/><path fill-rule="evenodd" clip-rule="evenodd" d="M40.776 55.505a7.466 7.466 0 0 1-7.466-7.466 7.474 7.474 0 0 1 7.466-7.466 7.466 7.466 0 1 1 0 14.932zm-.519-8.503h1.037a2.476 2.476 0 0 1 2.593 2.339 2.414 2.414 0 0 1-2.074 2.28v.048a1.037 1.037 0 0 1-2.074 0h-1.037a1.037 1.037 0 0 1 0-2.074h2.592c.323 0 .519-.18.519-.26 0-.078-.196-.259-.519-.259h-1.037a2.476 2.476 0 0 1-2.592-2.338 2.414 2.414 0 0 1 2.074-2.282v-.046a1.037 1.037 0 0 1 2.074 0h1.037a1.037 1.037 0 0 1 0 2.074h-2.593c-.322 0-.518.18-.518.259 0 .079.196.26.518.26z" fill="#00A86B" fill-opacity=".7"/><path d="M26.959 23.41l25.427 8.174-20.518-14.55-4.91 6.376zm-6.249-.232l-2.972 11.529H56.35l-30.534-9.878a.891.891 0 0 1-1.28-.414l-3.825-1.237z" fill="#00A86B" fill-opacity=".7"/><path fill-rule="evenodd" clip-rule="evenodd" d="M16.777 59.594h37.48V45.965c0-2.85 5.91-4.148 11.406-4.148.394 0 .79.007 1.185.02v-5.353h-50.07v23.11zm32.294-20.74h8.23a.889.889 0 0 1 0 1.778h-8.23a.889.889 0 1 1 0-1.777zm-17.42 9.185a9.125 9.125 0 1 1 9.125 9.125 9.135 9.135 0 0 1-9.126-9.125zm-7.01 7.406h7.84a.889.889 0 1 1 0 1.777h-8.232a.889.889 0 0 1-.657-.289l-4.213-4.608a.889.889 0 0 1-.232-.6v-7.374c0-.266.094-.524.267-.726l4.633-4.518a.89.89 0 0 1 .622-.252h7.811a.889.889 0 0 1 0 1.777h-7.45l-4.105 4.008v6.74l3.717 4.065z" fill="#00A86B" fill-opacity=".7"/><path d="M59.331 22.17H1a1 1 0 0 0-.999.997v28.001a1 1 0 0 0 .997 1h39.666a1 1 0 0 0 0-2H2V24.169h56.33v2.5a.997.997 0 0 0 .997 1h.002a1 1 0 0 0 1-.997v-3.503a.999.999 0 0 0-.998-1zm-6.782-4.642L5.885 7.03a1.004 1.004 0 0 0-.754.13 1.006 1.006 0 0 0-.441.628l-2.333 10.5a1 1 0 0 0 1.952.434L6.424 9.2 52.11 19.478a1 1 0 0 0 .439-1.95zm-5.666-5.785L18.884.077a1.003 1.003 0 0 0-1.283.478L15.268 5.22a1.003 1.003 0 1 0 1.794.896v.002l1.915-3.831L46.11 13.593a1.002 1.002 0 0 0 .773-1.85z" fill="#000"/><path d="M47.59 26.836h-9.26a1 1 0 0 0 0 2h9.26a1 1 0 0 0 0-2zm-18.592.067c-5.67 0-10.266 4.596-10.266 10.266.006 5.667 4.599 10.26 10.266 10.266 5.67 0 10.266-4.596 10.266-10.266s-4.596-10.266-10.266-10.266zm0 18.665a8.4 8.4 0 0 1-8.4-8.4 8.409 8.409 0 0 1 8.4-8.399 8.4 8.4 0 1 1 0 16.8zM56.995 30.17c-6.182 0-12.832 1.46-12.832 4.666v27.998c0 3.205 6.65 4.666 12.833 4.666 6.182 0 12.832-1.46 12.832-4.666V34.835c0-3.206-6.65-4.667-12.833-4.667zm10.5 32.646c-.176.647-3.675 2.35-10.5 2.35-6.824 0-10.323-1.703-10.499-2.332V61c2.483 1.25 6.583 1.834 10.5 1.834 3.916 0 8.017-.59 10.499-1.836v1.818zm0-4.666c-.176.647-3.675 2.35-10.5 2.35-6.824 0-10.323-1.703-10.499-2.333v-1.834c2.483 1.25 6.583 1.834 10.5 1.834 3.916 0 8.017-.589 10.499-1.835v1.818zm0-4.667c-.176.648-3.675 2.351-10.5 2.351-6.824 0-10.323-1.703-10.499-2.333v-1.834c2.483 1.25 6.583 1.834 10.5 1.834 3.916 0 8.017-.59 10.499-1.835v1.817zm0-4.666c-.176.647-3.675 2.35-10.5 2.35-6.824 0-10.323-1.703-10.499-2.333v-1.833c2.483 1.25 6.583 1.834 10.5 1.834 3.916 0 8.017-.59 10.499-1.836v1.818zm0-4.666c-.176.647-3.675 2.35-10.5 2.35-6.824 0-10.323-1.703-10.499-2.333v-1.834c2.483 1.245 6.583 1.834 10.5 1.834 3.916 0 8.017-.589 10.499-1.835v1.818zm0-4.667c-.176.648-3.675 2.351-10.5 2.351-6.824 0-10.323-1.703-10.499-2.333v-1.834c2.483 1.245 6.583 1.834 10.5 1.834 3.916 0 8.017-.59 10.499-1.835v1.817zm-10.5-2.315c-6.813 0-10.31-1.699-10.499-2.313v-.007c.188-.65 3.685-2.347 10.5-2.347 6.766 0 10.265 1.673 10.499 2.334-.234.66-3.733 2.333-10.5 2.333z" fill="#000"/><path d="M19.665 45.5h-8.818l-4.181-4.572v-7.583l4.617-4.51h8.382a1 1 0 0 0 0-1.999h-8.788a1 1 0 0 0-.7.284l-5.211 5.083a1.253 1.253 0 0 0-.301.816v8.297a1 1 0 0 0 .261.674l4.74 5.185a1 1 0 0 0 .739.325h9.26a1 1 0 0 0 0-2zm9.916-9.498h-1.166c-.363 0-.584-.203-.584-.291 0-.089.22-.292.584-.292h2.916a1.167 1.167 0 0 0 0-2.333h-1.167a1.167 1.167 0 0 0-2.333 0v.053a2.716 2.716 0 0 0-2.333 2.566 2.786 2.786 0 0 0 2.916 2.63h1.167c.363 0 .583.204.583.292 0 .089-.22.292-.583.292h-2.916a1.167 1.167 0 0 0 0 2.333h1.166a1.167 1.167 0 0 0 2.333 0V41.2a2.716 2.716 0 0 0 2.334-2.567 2.786 2.786 0 0 0-2.917-2.63z" fill="#000"/></svg>