<svg width="86" height="75" fill="none" xmlns="http://www.w3.org/2000/svg"><path d="M85.37 29.382c-1.021-11.232-8.982-19.38-18.944-19.38-6.637 0-12.714 3.566-16.133 9.283C46.904 13.495 41.076 10 34.546 10c-9.961 0-17.923 8.149-18.943 19.381-.08.496-.412 3.107.595 7.365C17.649 42.888 21 48.474 25.89 52.898L50.276 75l24.805-22.1c4.889-4.426 8.24-10.01 9.692-16.154 1.007-4.257.676-6.868.596-7.364z" fill="#00A86B" fill-opacity=".7"/><path d="M80.532 22.364C79.354 9.404 70.182.002 58.702.002c-7.649 0-14.652 4.115-18.592 10.712C36.205 4.032 29.49 0 21.964 0 10.485 0 1.31 9.403.134 22.363c-.092.572-.474 3.585.686 8.498 1.673 7.087 5.536 13.532 11.168 18.636L40.092 75l28.585-25.501c5.633-5.106 9.496-11.55 11.168-18.638 1.16-4.912.78-7.924.688-8.497zm-3.708 7.787c-1.526 6.472-5.065 12.368-10.223 17.041L40.11 70.827 14.073 47.198C8.906 42.516 5.37 36.621 3.841 30.148c-1.099-4.648-.647-7.275-.646-7.292l.024-.157c1.008-11.354 8.89-19.596 18.745-19.596 7.27 0 13.672 4.468 16.71 11.658l1.428 3.387 1.429-3.387c2.99-7.08 9.728-11.657 17.172-11.657 9.852 0 17.736 8.243 18.765 19.744.003.025.454 2.653-.644 7.303z" fill="#262626"/></svg>