<svg width="75" height="75" fill="none" xmlns="http://www.w3.org/2000/svg"><path d="M64.887 32.967l4.878-4.337.018-.015a16.282 16.282 0 0 0 5.052-14.253l-.177-1.257a3.283 3.283 0 0 0-2.763-2.764l-1.247-.176a16.298 16.298 0 0 0-14.278 5.07l-4.337 4.879-2.344-1.349a40.632 40.632 0 0 0-20.274-5.385l-2.017.007a5.446 5.446 0 0 0-4.686 2.716l-.38.66c-.3.52-.122 1.183.397 1.483l20.7 11.951-16.176 18.327-1.239 1.592a22.854 22.854 0 0 0-10.957-2.81l-1.636-.008a3.307 3.307 0 0 0-2.813 1.63l-.462.79a1.086 1.086 0 0 0 .398 1.486l10.538 6.084a28.298 28.298 0 0 0-.84 1.752 4.373 4.373 0 0 0 3.979 6.074 4.412 4.412 0 0 0 1.82-.4 26.423 26.423 0 0 0 1.67-.8l6.085 10.538a1.085 1.085 0 0 0 1.486.403l.799-.462h.006a3.313 3.313 0 0 0 1.621-2.825l-.007-1.615a22.855 22.855 0 0 0-2.819-10.967l1.57-1.221 18.34-16.195L66.75 62.273c.3.518.964.697 1.483.397l.66-.379a5.447 5.447 0 0 0 2.716-4.689l.006-2.014a40.252 40.252 0 0 0-5.383-20.275l-1.345-2.346z" fill="#00A86B" fill-opacity=".7"/><path d="M63.332 26.5l5.628-5.003.022-.018A18.787 18.787 0 0 0 74.81 5.033l-.205-1.45a3.789 3.789 0 0 0-3.188-3.19L69.98.19a18.806 18.806 0 0 0-16.475 5.85L48.5 11.67l-2.704-1.556A46.884 46.884 0 0 0 22.403 3.9l-2.327.008a6.284 6.284 0 0 0-5.409 3.134l-.438.762a1.252 1.252 0 0 0 .459 1.71l23.884 13.79L19.908 44.45l-1.43 1.838a26.368 26.368 0 0 0-12.643-3.243l-1.888-.009A3.816 3.816 0 0 0 .7 44.916l-.533.913a1.252 1.252 0 0 0 .46 1.714l12.159 7.02a32.732 32.732 0 0 0-.969 2.022 5.046 5.046 0 0 0 4.59 7.008 5.092 5.092 0 0 0 2.1-.46 30.58 30.58 0 0 0 1.929-.925l7.02 12.16a1.253 1.253 0 0 0 1.715.465l.921-.533h.008a3.823 3.823 0 0 0 1.87-3.26l-.008-1.864a26.37 26.37 0 0 0-3.253-12.654l1.812-1.409 21.162-18.686L65.48 60.314a1.254 1.254 0 0 0 1.712.46l.76-.438a6.285 6.285 0 0 0 3.135-5.41l.007-2.325a46.443 46.443 0 0 0-6.212-23.394l-1.551-2.706zM20.085 6.416l2.326-.008a44.218 44.218 0 0 1 22.133 5.88l2.286 1.315-6.586 7.782-23.203-13.4a3.779 3.779 0 0 1 3.044-1.569zM3.953 45.544l1.88.008c3.867 0 7.675.94 11.097 2.737l-.787 1.014a29.423 29.423 0 0 0-1.309 1.808c-.125.18-.238.364-.357.549-.154.24-.316.47-.465.715L2.98 46.011c.24-.293.595-.464.973-.468zm25.496 23.634l.009 1.852c0 .384-.173.747-.469.99l-6.364-11.032c.244-.148.472-.306.709-.46.186-.124.376-.239.56-.363a28.912 28.912 0 0 0 1.754-1.266l.038-.027 1.028-.8a23.883 23.883 0 0 1 2.735 11.106zm-.528-15.995l-2.58 2.006c-.006 0-.015 0-.02.01l-2.187 1.706a28.92 28.92 0 0 1-3.834 2.54 30.276 30.276 0 0 1-2.944 1.465 2.52 2.52 0 0 1-3.227-3.332c.427-.986.906-1.948 1.435-2.883a28.828 28.828 0 0 1 2.547-3.851l1.693-2.172s0-.014.01-.02l2.024-2.607L55.36 7.725a16.305 16.305 0 0 1 11.94-5.22c.777 0 1.552.055 2.32.167l1.439.204c.55.081.983.511 1.066 1.062l.205 1.448a16.282 16.282 0 0 1-5.048 14.242l-38.36 33.555zm39.664 1.735a3.773 3.773 0 0 1-1.569 3.041l-13.399-23.21 7.785-6.58 1.317 2.29a43.937 43.937 0 0 1 5.874 22.14l-.008 2.319z" fill="#262626"/><path d="M60.55 9.298a3.76 3.76 0 0 1 5.15 5.155 1.255 1.255 0 0 0 2.157 1.28 6.268 6.268 0 0 0-8.581-8.594 1.253 1.253 0 1 0 1.275 2.159z" fill="#000"/></svg>