<svg width="96" height="75" fill="none" xmlns="http://www.w3.org/2000/svg"><path d="M68.69 40.59a3.291 3.291 0 0 0-2.61-1.274H29.433a3.292 3.292 0 0 0-2.61 1.274 3.29 3.29 0 0 0-.603 2.841l.855 3.42a3.307 3.307 0 0 0 3.213 2.508h34.937a3.308 3.308 0 0 0 3.214-2.509l.854-3.419c.25-.996.03-2.032-.603-2.841zm-2.506 2.064l-.855 3.419a.106.106 0 0 1-.104.08H30.288a.107.107 0 0 1-.104-.08l-.855-3.419a.098.098 0 0 1 .02-.092c.032-.04.068-.04.084-.04H66.08c.016 0 .052 0 .084.04a.098.098 0 0 1 .02.092z" fill="#000"/><path d="M91.636 36.481a4.363 4.363 0 0 0 4.363-4.352c0-2.4-1.957-4.351-4.363-4.351H90.15a4.367 4.367 0 0 0-4.308 3.659l-3.715-10.19a5.866 5.866 0 0 0-5.496-3.84H66.039l-.784-3.909A4.372 4.372 0 0 0 60.976 10H48.022a4.372 4.372 0 0 0-4.279 3.498l-.784 3.91H32.367a5.866 5.866 0 0 0-5.496 3.84l-3.715 10.188a4.367 4.367 0 0 0-4.308-3.658h-1.485c-2.406 0-4.364 1.952-4.364 4.352 0 2.4 1.958 4.351 4.364 4.351h1.485a4.35 4.35 0 0 0 1.913-.441l-3.184 3.97a7.328 7.328 0 0 0-1.607 4.569v27.55A2.877 2.877 0 0 0 18.848 75h4.456a2.877 2.877 0 0 0 2.879-2.87v-6.02h56.633v6.019A2.877 2.877 0 0 0 85.694 75h4.456a2.877 2.877 0 0 0 2.878-2.87V44.579c0-1.655-.57-3.278-1.607-4.57l-3.184-3.97a4.345 4.345 0 0 0 1.913.442h1.486z" fill="#00A86B" fill-opacity=".7"/><path d="M90.492 30.555a5.027 5.027 0 0 0 5.021-5.02 5.027 5.027 0 0 0-5.021-5.022h-1.71a5.03 5.03 0 0 0-4.957 4.221L79.55 12.979a6.75 6.75 0 0 0-6.325-4.431H61.036l-.902-4.51A5.035 5.035 0 0 0 55.21 0H40.303a5.035 5.035 0 0 0-4.924 4.037l-.902 4.51H22.288a6.751 6.751 0 0 0-6.325 4.43l-4.275 11.757a5.03 5.03 0 0 0-4.957-4.221H5.02A5.027 5.027 0 0 0 0 25.534a5.027 5.027 0 0 0 5.021 5.021h1.71a4.99 4.99 0 0 0 2.201-.509l-3.664 4.58a8.47 8.47 0 0 0-1.85 5.272v31.79A3.316 3.316 0 0 0 6.732 75h5.128a3.316 3.316 0 0 0 3.312-3.312v-6.945h65.171v6.945A3.316 3.316 0 0 0 83.654 75h5.128a3.316 3.316 0 0 0 3.312-3.312v-31.79a8.47 8.47 0 0 0-1.85-5.272l-3.663-4.58a4.99 4.99 0 0 0 2.201.51h1.71zM6.73 27.35H5.02a1.818 1.818 0 0 1-1.816-1.816c0-1.002.815-1.816 1.817-1.816H6.73c1.001 0 1.816.814 1.816 1.816A1.818 1.818 0 0 1 6.73 27.35zM38.52 4.665c.17-.846.919-1.46 1.782-1.46H55.21a1.82 1.82 0 0 1 1.78 1.46l.777 3.882H37.745l.777-3.882zM11.967 71.688a.107.107 0 0 1-.107.107H6.73a.107.107 0 0 1-.107-.107v-7.945a6.69 6.69 0 0 0 3.525 1h1.817v6.945zm54.7-10.15h-37.82v-3.525c0-.06.048-.107.107-.107H66.56c.06 0 .107.048.107.107v3.525zm22.223 10.15a.107.107 0 0 1-.107.107h-5.128a.107.107 0 0 1-.107-.107v-6.945h1.816a6.69 6.69 0 0 0 3.526-1v7.945zm-1.147-35.06a5.255 5.255 0 0 1 1.147 3.27v18.115a3.53 3.53 0 0 1-3.525 3.525H69.872v-3.525A3.316 3.316 0 0 0 66.56 54.7H28.953a3.316 3.316 0 0 0-3.312 3.312v3.525H10.15a3.53 3.53 0 0 1-3.526-3.525V39.899c0-1.185.407-2.346 1.147-3.27l4.858-6.074h64.384a1.603 1.603 0 1 0 0-3.205H14.147l4.828-13.278a3.536 3.536 0 0 1 3.314-2.32h50.936c1.477 0 2.808.933 3.313 2.32l4.828 13.278h-6.258a1.603 1.603 0 0 0 0 3.205h7.776l4.858 6.073zm-.776-11.094c0-1.002.815-1.816 1.816-1.816h1.71c1.001 0 1.816.814 1.816 1.816a1.818 1.818 0 0 1-1.816 1.816h-1.71a1.818 1.818 0 0 1-1.816-1.816z" fill="#262626"/><path d="M16.133 37.607a5.883 5.883 0 0 0-5.876 5.876 5.883 5.883 0 0 0 5.876 5.876 5.883 5.883 0 0 0 5.876-5.876 5.883 5.883 0 0 0-5.876-5.876zm0 8.547a2.674 2.674 0 0 1-2.671-2.671 2.674 2.674 0 0 1 2.67-2.671 2.674 2.674 0 0 1 2.672 2.67 2.674 2.674 0 0 1-2.671 2.672zm63.247-8.547a5.883 5.883 0 0 0-5.876 5.876 5.883 5.883 0 0 0 5.876 5.876 5.883 5.883 0 0 0 5.877-5.876 5.883 5.883 0 0 0-5.877-5.876zm0 8.547a2.674 2.674 0 0 1-2.67-2.671 2.674 2.674 0 0 1 2.67-2.671 2.674 2.674 0 0 1 2.672 2.67 2.674 2.674 0 0 1-2.672 2.672z" fill="#262626"/></svg>