<svg width="75" height="75" fill="none" xmlns="http://www.w3.org/2000/svg"><path d="M73.738 72.833h-6.5v-35.75c0-.598-.485-1.083-1.084-1.083H50.988V11.083c0-.598-.485-1.083-1.084-1.083H21.738c-.599 0-1.084.485-1.084 1.083v61.75h-9.75a1.083 1.083 0 0 0 0 2.167h62.834a1.083 1.083 0 0 0 0-2.167z" fill="#00A86B" fill-opacity=".7"/><path d="M73.75 72.5h-7.5V31.25c0-.69-.56-1.25-1.25-1.25H47.5V1.25C47.5.56 46.94 0 46.25 0h-32.5c-.69 0-1.25.56-1.25 1.25V72.5H1.25a1.25 1.25 0 0 0 0 2.5h72.5a1.25 1.25 0 0 0 0-2.5zm-47.5 0h-5V61.25c0-.69.56-1.25 1.25-1.25H25c.69 0 1.25.56 1.25 1.25V72.5zm5-41.25V72.5h-2.5V61.25A3.75 3.75 0 0 0 25 57.5h-2.5a3.75 3.75 0 0 0-3.75 3.75V72.5H15v-70h30V30H32.5c-.69 0-1.25.56-1.25 1.25zm32.5 41.25h-30v-40h30v40z" fill="#262626"/></svg>