<svg width="13" height="14" fill="none" xmlns="http://www.w3.org/2000/svg"><g clip-path="url(#clip0)" fill="#000"><path d="M11.477 1.516h-.61V.5H9.852v1.016H3.148V.5H2.133v1.016h-.61C.683 1.516 0 2.199 0 3.039v8.938c0 .84.683 1.523 1.523 1.523h9.954c.84 0 1.523-.683 1.523-1.523V3.039c0-.84-.683-1.523-1.523-1.523zm.507 10.46c0 .28-.227.508-.507.508H1.523a.508.508 0 0 1-.507-.507V5.273h10.968v6.704zm0-7.718H1.016V3.039c0-.28.227-.508.507-.508h.61v1.016h1.015V2.53h6.704v1.016h1.015V2.53h.61c.28 0 .507.228.507.508v1.219z"/><path d="M2.945 6.34H1.93v1.015h1.015V6.34zm2.032 0H3.96v1.015h1.016V6.34zm2.031 0H5.992v1.015h1.016V6.34zm2.032 0H8.022v1.015H9.04V6.34zm2.03 0h-1.015v1.015h1.015V6.34zM2.945 8.371H1.93v1.016h1.015V8.37zm2.032 0H3.96v1.016h1.016V8.37zm2.031 0H5.992v1.016h1.016V8.37zm2.032 0H8.022v1.016H9.04V8.37zm-6.095 2.031H1.93v1.016h1.015v-1.016zm2.032 0H3.96v1.016h1.016v-1.016zm2.031 0H5.992v1.016h1.016v-1.016zm2.032 0H8.022v1.016H9.04v-1.016zm2.03-2.031h-1.015v1.016h1.015V8.37z"/></g><defs><clipPath id="clip0"><path fill="#fff" transform="translate(0 .5)" d="M0 0h13v13H0z"/></clipPath></defs></svg>