<svg width="20" height="20" fill="none" xmlns="http://www.w3.org/2000/svg"><path d="M17.656 1.563h-.937V0h-1.563v1.563H4.844V0H3.28v1.563h-.937A2.346 2.346 0 0 0 0 3.905v13.75A2.346 2.346 0 0 0 2.344 20h15.312A2.346 2.346 0 0 0 20 17.656V3.906a2.346 2.346 0 0 0-2.344-2.344zm.782 16.093a.783.783 0 0 1-.782.782H2.344a.782.782 0 0 1-.781-.782V7.344h16.875v10.312zm0-11.875H1.563V3.906c0-.43.35-.781.78-.781h.938v1.563h1.563V3.125h10.312v1.563h1.563V3.125h.937c.431 0 .782.35.782.781v1.875z" fill="#fff"/><path d="M4.531 8.984H2.97v1.563h1.56V8.984zm3.125 0H6.094v1.563h1.562V8.984zm3.125 0H9.22v1.563h1.562V8.984zm3.125 0h-1.562v1.563h1.562V8.984zm3.125 0H15.47v1.563h1.562V8.984zm-12.5 3.126H2.97v1.562h1.56v-1.563zm3.125 0H6.094v1.562h1.562v-1.563zm3.125 0H9.22v1.562h1.562v-1.563zm3.125 0h-1.562v1.562h1.562v-1.563zm-9.375 3.124H2.97v1.563h1.56v-1.563zm3.125 0H6.094v1.563h1.562v-1.563zm3.125 0H9.22v1.563h1.562v-1.563zm3.125 0h-1.562v1.563h1.562v-1.563zm3.125-3.124H15.47v1.562h1.562v-1.563z" fill="#fff"/></svg>