<svg width="72" height="50" fill="none" xmlns="http://www.w3.org/2000/svg"><path d="M51.347 17.828l-15.514-5.352a6.01 6.01 0 0 0-4.523.277l-.779.377a4.392 4.392 0 0 1-3.404.188l-1.332-.477a1.369 1.369 0 0 0-.188-.1l-7.94-2.702a.768.768 0 0 0-.577.038.744.744 0 0 0-.377.427l-6.67 19.46a.753.753 0 0 0 .464.954l7.952 2.726c.088.038.163.05.251.05a.743.743 0 0 0 .703-.502l6.42-18.718.804.289a5.96 5.96 0 0 0 4.573-.264l.778-.377a4.415 4.415 0 0 1 3.367-.214l14.937 5.151c-.036.204-.09.45-.175.71-.184.569-.508 1.2-1.069 1.589-.631.435-1.507.512-2.596.223a7.168 7.168 0 0 1-.52-.16l-6.52-2.224a.776.776 0 0 0-.602.05.796.796 0 0 0-.377.478c-.013.037-.98 3.605-3.995 5.213-1.91 1.03-4.271 1.068-7.022.126-1.83-2.11-2.305-1.73-3.76-4.244-.445 1.3-.583 1.71-.67 1.956-.138.39 2.125 2.78 3.94 3.707 1.47.752 2.864.754 4.158.754 1.482 0 2.84-.327 4.07-.992 2.689-1.445 3.982-4.083 4.472-5.39l5.792 1.985c.428.148.837.256 1.229.325 1.276.223 2.358.03 3.243-.576.664-.458 1.102-1.089 1.392-1.716.52-1.128.56-2.244.568-2.317a.747.747 0 0 0-.503-.728z" fill="#00A86B" fill-opacity=".7"/><path d="M71.27 28.97L62.2 10.543a.743.743 0 0 0-.426-.377.767.767 0 0 0-.578.038l-7.55 3.693a.757.757 0 0 0-.352 1.005l1.962 4.007 6.832 13.957-2.952 2.7a35.335 35.335 0 0 1-8.38 5.717l-14.459 7.072a1.623 1.623 0 0 1-1.281.076 1.706 1.706 0 0 1-.967-.855 1.624 1.624 0 0 1-.076-1.28c.151-.428.453-.767.855-.968l8.077-3.957a.757.757 0 0 0 .352-1.005.76.76 0 0 0-1.005-.352L30.368 45.83c-.83.402-1.847.063-2.249-.766a1.692 1.692 0 0 1 .767-2.249l11.607-5.678a.757.757 0 0 0 .352-1.005.76.76 0 0 0-1.005-.352l-8.593 4.209-4.434 2.16c-.83.402-1.847.063-2.249-.766-.402-.829-.063-1.846.767-2.248l1.432-.704 10.389-5.088a.757.757 0 0 0 .351-1.005.76.76 0 0 0-1.005-.351L26.11 37.073a1.624 1.624 0 0 1-1.281.076 1.706 1.706 0 0 1-.967-.855 1.624 1.624 0 0 1-.076-1.28c.151-.428.453-.767.855-.968l22.007-10.881 4.635-2.292 3.965-1.96.009-.005a.757.757 0 0 0 .343-1 .76.76 0 0 0-1.005-.352l-4.477 2.213-3.665 1.812-22.466 11.108a3.194 3.194 0 0 0-1.62 1.834 3.16 3.16 0 0 0 .15 2.437 3.15 3.15 0 0 0 1.345 1.395 3.184 3.184 0 0 0 2.236 5.452c.138 0 .276-.013.414-.025-.1.628-.025 1.294.277 1.922a3.18 3.18 0 0 0 4.258 1.457l1.37-.678c-.063.59.037 1.18.314 1.72a3.193 3.193 0 0 0 1.834 1.621c.339.113.69.176 1.042.176a3.2 3.2 0 0 0 1.395-.327l14.46-7.072a36.705 36.705 0 0 0 8.73-5.967l3.279-3.015 7.45-3.643a.757.757 0 0 0 .35-1.005zm-7.913 3.066l-8.38-17.123 6.206-3.027 8.367 17.122-6.193 3.028z" fill="#00A86B" fill-opacity=".7"/><path d="M25.833 14.474l-2.176 6.346c1.454 2.513 1.928 2.134 3.759 4.244 2.751.942 5.113.904 7.022-.126 3.015-1.608 3.982-5.175 3.995-5.213a.796.796 0 0 1 .377-.478.776.776 0 0 1 .603-.05l6.52 2.224c.178.062.351.115.52.16l3.664-1.812c.084-.26.14-.506.175-.71l-14.937-5.15a4.415 4.415 0 0 0-3.366.213l-.78.377a5.96 5.96 0 0 1-4.572.264l-.804-.29zm24.057 8.115c-.885.606-1.967.8-3.243.576L24.64 34.044a1.713 1.713 0 0 0-.855.968c-.15.427-.125.88.076 1.282.2.401.54.703.967.854.427.15.88.125 1.281-.076l10.39-5.087a.76.76 0 0 1 1.004.351.757.757 0 0 1-.351 1.005l-10.39 5.088-1.431.704c-.83.402-1.169 1.42-.767 2.248.402.83 1.42 1.169 2.249.767l4.434-2.161 8.593-4.209a.76.76 0 0 1 1.005.352.757.757 0 0 1-.352 1.005l-11.607 5.678a1.692 1.692 0 0 0-.767 2.249c.402.83 1.42 1.168 2.249.766l11.884-5.816a.76.76 0 0 1 1.005.352.757.757 0 0 1-.352 1.005l-8.077 3.957c-.402.2-.704.54-.855.967-.15.427-.125.88.076 1.282.2.401.54.703.967.854.427.15.88.125 1.281-.076l14.46-7.072a35.335 35.335 0 0 0 8.379-5.716l2.952-2.701-6.832-13.957-.01.004-3.964 1.96c-.29.628-.728 1.26-1.392 1.717zm13.467 9.447l-8.38-17.123 6.206-3.027 8.367 17.122-6.193 3.028z" fill="#00A86B" fill-opacity=".7"/><path d="M46.516 8.806l-17.454-6.02a6.76 6.76 0 0 0-5.088.31l-.876.425a4.94 4.94 0 0 1-3.83.212l-1.498-.537a1.538 1.538 0 0 0-.212-.113L8.626.044a.863.863 0 0 0-.65.043.836.836 0 0 0-.424.48L.047 22.46a.847.847 0 0 0 .523 1.074L9.516 26.6a.674.674 0 0 0 .283.057.837.837 0 0 0 .791-.565l7.222-21.058.905.325a6.705 6.705 0 0 0 5.144-.297l.876-.424a4.966 4.966 0 0 1 3.788-.24l16.803 5.794c-.127.735-.48 1.95-1.399 2.587-.82.565-2.007.593-3.505.07l-7.334-2.501a.873.873 0 0 0-.679.056.896.896 0 0 0-.424.537c-.014.043-1.102 4.056-4.494 5.865-2.148 1.16-4.805 1.202-7.9.142a.847.847 0 0 0-1.074.523.847.847 0 0 0 .523 1.074c1.653.565 3.222.848 4.678.848 1.667 0 3.194-.368 4.579-1.117 3.024-1.625 4.48-4.593 5.03-6.063l6.516 2.233c2.05.707 3.73.608 5.031-.282 2.092-1.442 2.19-4.41 2.205-4.537a.841.841 0 0 0-.566-.82zM9.276 24.72l-7.349-2.516L8.88 1.924l7.151 2.445.17.085.028.014L9.276 24.72z" fill="#000"/><path d="M68.93 21.342L58.726.61a.836.836 0 0 0-.48-.424.863.863 0 0 0-.65.042l-8.494 4.155a.851.851 0 0 0-.396 1.13l9.893 20.21-3.321 3.039a39.751 39.751 0 0 1-9.427 6.43l-16.266 7.957a1.827 1.827 0 0 1-1.442.084 1.919 1.919 0 0 1-1.088-.96 1.827 1.827 0 0 1-.085-1.442c.17-.48.509-.862.961-1.088l9.087-4.452a.851.851 0 0 0 .396-1.13.855.855 0 0 0-1.13-.396l-8.89 4.352-4.48 2.191c-.933.452-2.078.07-2.53-.862a1.903 1.903 0 0 1 .862-2.53l13.059-6.388a.851.851 0 0 0 .396-1.13.856.856 0 0 0-1.131-.396l-9.667 4.734-3.392 1.654-1.597.777c-.932.452-2.077.07-2.53-.862-.452-.933-.07-2.077.863-2.53l1.61-.791 11.689-5.724a.851.851 0 0 0 .395-1.13.855.855 0 0 0-1.13-.396l-7.505 3.674-4.183 2.05a1.827 1.827 0 0 1-1.442.084 1.92 1.92 0 0 1-1.088-.96 1.826 1.826 0 0 1-.085-1.442c.17-.48.51-.862.962-1.088l6.204-3.039a.851.851 0 0 0 .395-1.13.855.855 0 0 0-1.13-.396l-6.204 3.038a3.593 3.593 0 0 0-1.823 2.064 3.548 3.548 0 0 0 .17 2.741 3.53 3.53 0 0 0 1.511 1.57 3.582 3.582 0 0 0 2.516 6.133c.155 0 .31-.014.466-.029a3.636 3.636 0 0 0 .311 2.163 3.577 3.577 0 0 0 4.791 1.64l1.54-.764c-.07.664.043 1.328.354 1.936a3.593 3.593 0 0 0 2.063 1.823c.382.127.777.198 1.173.198.537 0 1.074-.127 1.569-.367l16.267-7.957a41.29 41.29 0 0 0 9.822-6.713l3.688-3.392 8.381-4.098a.851.851 0 0 0 .396-1.131zm-8.904 3.448L50.6 5.528l6.981-3.406 9.413 19.262-6.968 3.406z" fill="#000"/></svg>