<svg width="52" height="50" fill="none" xmlns="http://www.w3.org/2000/svg"><path d="M45.16 23.138H10.592a.592.592 0 0 0-.593.59v16.594c0 .327.264.592.591.592h32.395a.593.593 0 0 0 0-1.185h-31.8V24.323h33.38v10.37a.592.592 0 1 0 1.185.001V23.73a.592.592 0 0 0-.59-.592z" fill="#00A86B" fill-opacity=".7"/><path d="M41.14 23.054l-6.216-1.998-16.952-5.449-4.484-1.442a.595.595 0 0 0-.709.45l-2.271 8.888a.593.593 0 1 0 1.157.257l.16-.622 1.982-7.686 2.55.825.854.276 20.356 6.585 3.313 1.072a.592.592 0 0 0 .26-1.156z" fill="#00A86B" fill-opacity=".7"/><path d="M38.671 22.292l-17.48-12.246a.594.594 0 0 0-.76.283l-4.05 5.431a.594.594 0 1 0 1.063.531v.002l.528-.686 3.273-4.251 13.679 9.7 3.29 2.333a.594.594 0 1 0 .457-1.097zm-.47 3.611h-5.487a.592.592 0 0 0 0 1.185h5.487a.593.593 0 0 0 0-1.185zm-11.017.04a6.083 6.083 0 1 0 0 12.166 6.083 6.083 0 0 0 0-12.166zm0 11.06a4.977 4.977 0 1 1 0-9.954 4.977 4.977 0 0 1 0 9.955zm16.591-9.125c-3.664 0-7.604.866-7.604 2.765v16.592c0 1.9 3.94 2.765 7.604 2.765s7.605-.865 7.605-2.765V30.643c0-1.763-3.396-2.636-6.815-2.752a23.45 23.45 0 0 0-.79-.013zm6.222 19.346c-.104.384-2.178 1.393-6.222 1.393-4.044 0-6.117-1.009-6.221-1.382v-1.087c1.47.741 3.9 1.087 6.221 1.087s4.752-.35 6.222-1.088v1.077zm0-2.765c-.104.384-2.178 1.393-6.222 1.393-4.044 0-6.117-1.01-6.221-1.383v-1.086c1.47.74 3.9 1.086 6.221 1.086s4.752-.349 6.222-1.087v1.077zm0-2.765c-.104.384-2.178 1.393-6.222 1.393-4.044 0-6.117-1.01-6.221-1.383v-1.086c1.47.74 3.9 1.086 6.221 1.086s4.752-.349 6.222-1.087v1.077zm0-2.765c-.104.383-2.178 1.393-6.222 1.393-4.044 0-6.117-1.01-6.221-1.383v-1.087c1.47.741 3.9 1.087 6.221 1.087s4.752-.349 6.222-1.087v1.077zm0-2.766c-.104.384-2.178 1.393-6.222 1.393-4.044 0-6.117-1.009-6.221-1.382v-1.087c1.47.738 3.9 1.087 6.221 1.087s4.752-.35 6.222-1.088v1.078zm0-2.765c-.104.384-2.178 1.393-6.222 1.393-4.044 0-6.117-1.01-6.221-1.382v-1.087c1.47.737 3.9 1.087 6.221 1.087s4.752-.35 6.222-1.088v1.077zm-6.222-1.372c-4.038 0-6.11-1.007-6.221-1.37v-.004c.11-.385 2.183-1.391 6.221-1.391 4.01 0 6.084.991 6.222 1.382-.138.392-2.212 1.383-6.222 1.383z" fill="#00A86B" fill-opacity=".7"/><path d="M21.653 36.963h-5.225l-2.478-2.71V29.76l2.736-2.672h4.967a.592.592 0 0 0 0-1.185h-5.207a.593.593 0 0 0-.415.168l-3.088 3.012a.743.743 0 0 0-.178.484v4.917c0 .148.055.29.154.4l2.81 3.072a.592.592 0 0 0 .437.192h5.487a.592.592 0 0 0 0-1.185zm5.877-5.628h-.692c-.215 0-.346-.12-.346-.173 0-.053.131-.173.346-.173h1.729a.691.691 0 0 0 0-1.383h-.692a.691.691 0 0 0-1.383 0v.032a1.61 1.61 0 0 0-1.382 1.52 1.65 1.65 0 0 0 1.728 1.56h.691c.215 0 .346.12.346.172 0 .053-.13.173-.346.173h-1.728a.691.691 0 0 0 0 1.383h.692a.691.691 0 0 0 1.382 0v-.031a1.61 1.61 0 0 0 1.383-1.521 1.65 1.65 0 0 0-1.729-1.56zm22.467 2.063c-.104.384-2.178 1.393-6.222 1.393-4.044 0-6.117-1.01-6.221-1.382v-1.087c1.47.737 3.9 1.087 6.221 1.087s4.752-.35 6.222-1.088v1.077zm-6.222-1.372c-4.038 0-6.11-1.007-6.221-1.37v-.004c.11-.385 2.183-1.391 6.221-1.391 4.01 0 6.084.991 6.222 1.382-.138.392-2.212 1.383-6.222 1.383zm6.222 4.137c-.104.384-2.178 1.393-6.222 1.393-4.044 0-6.117-1.009-6.221-1.382v-1.087c1.47.738 3.9 1.087 6.221 1.087s4.752-.35 6.222-1.088v1.078zm0 2.766c-.104.383-2.178 1.393-6.222 1.393-4.044 0-6.117-1.01-6.221-1.383v-1.087c1.47.741 3.9 1.087 6.221 1.087s4.752-.349 6.222-1.087v1.077zm0 2.765c-.104.384-2.178 1.393-6.222 1.393-4.044 0-6.117-1.01-6.221-1.383v-1.086c1.47.74 3.9 1.086 6.221 1.086s4.752-.349 6.222-1.087v1.077zm0 2.766c-.104.383-2.178 1.392-6.222 1.392-4.044 0-6.117-1.01-6.221-1.383v-1.086c1.47.74 3.9 1.086 6.221 1.086s4.752-.349 6.222-1.087v1.077zm0 2.764c-.104.384-2.178 1.393-6.222 1.393-4.044 0-6.117-1.009-6.221-1.382v-1.087c1.47.741 3.9 1.087 6.221 1.087s4.752-.35 6.222-1.088v1.077z" fill="#00A86B" fill-opacity=".7"/><path fill-rule="evenodd" clip-rule="evenodd" d="M27.184 37.004a4.977 4.977 0 1 1 0-9.955 4.977 4.977 0 0 1 0 9.955zm-.346-5.67h.691a1.65 1.65 0 0 1 1.729 1.56 1.61 1.61 0 0 1-1.383 1.52v.032a.691.691 0 0 1-1.383 0h-.69a.691.691 0 0 1 0-1.383h1.727c.215 0 .346-.12.346-.173 0-.052-.13-.173-.346-.173h-.69a1.65 1.65 0 0 1-1.73-1.558 1.61 1.61 0 0 1 1.383-1.521v-.032a.691.691 0 0 1 1.383 0h.692a.691.691 0 0 1 0 1.383h-1.729c-.215 0-.346.12-.346.173 0 .053.131.173.346.173z" fill="#00A86B" fill-opacity=".7"/><path d="M17.972 15.607l16.952 5.449-13.678-9.7-3.274 4.251zm-4.165-.155l-1.982 7.686h25.742L17.21 16.553a.594.594 0 0 1-.853-.276l-2.55-.825z" fill="#00A86B" fill-opacity=".7"/><path fill-rule="evenodd" clip-rule="evenodd" d="M11.185 39.73H36.17v-9.087c0-1.9 3.94-2.765 7.604-2.765.263 0 .527.005.79.014v-3.57h-33.38V39.73zm21.53-13.827H38.2a.593.593 0 0 1 0 1.185h-5.487a.593.593 0 0 1 0-1.185zM21.1 32.026a6.083 6.083 0 1 1 12.167 0 6.083 6.083 0 0 1-12.167 0zm-4.672 4.937h5.225a.592.592 0 0 1 0 1.185h-5.487a.592.592 0 0 1-.438-.193l-2.809-3.072a.593.593 0 0 1-.155-.4v-4.916c0-.177.064-.349.179-.484l3.088-3.012a.593.593 0 0 1 .415-.168h5.207a.592.592 0 0 1 0 1.185h-4.967L13.95 29.76v4.494l2.478 2.71z" fill="#00A86B" fill-opacity=".7"/><path d="M39.554 14.78H.667a.666.666 0 0 0-.667.665v18.667c0 .367.297.666.665.666h26.444a.666.666 0 1 0 0-1.333H1.333V16.113h37.553v1.667c0 .367.297.666.665.666h.002a.666.666 0 0 0 .666-.665v-2.335a.666.666 0 0 0-.665-.666zm-4.522-3.095L3.924 4.686a.67.67 0 0 0-.798.506l-1.555 7a.667.667 0 1 0 1.302.288l1.41-6.347 30.457 6.853a.667.667 0 0 0 .292-1.3zm-3.777-3.856L12.59.052a.669.669 0 0 0-.856.318L10.18 3.48a.669.669 0 1 0 1.196.598v.001l1.276-2.554 18.09 7.537a.668.668 0 0 0 .514-1.233z" fill="#000"/><path d="M31.726 17.891h-6.172a.667.667 0 0 0 0 1.333h6.172a.667.667 0 1 0 0-1.333zm-12.394.044a6.844 6.844 0 0 0-6.844 6.844 6.851 6.851 0 0 0 6.844 6.844 6.844 6.844 0 1 0 0-13.688zm0 12.444a5.6 5.6 0 0 1-5.6-5.6 5.6 5.6 0 1 1 5.6 5.6zm18.665-10.266c-4.122 0-8.555.974-8.555 3.11V41.89c0 2.137 4.433 3.11 8.555 3.11s8.555-.973 8.555-3.11V23.224c0-2.137-4.433-3.111-8.555-3.111zm7 21.764c-.118.432-2.45 1.567-7 1.567s-6.882-1.135-7-1.555v-1.223c1.656.834 4.39 1.223 7 1.223 2.61 0 5.345-.393 7-1.223v1.211zm0-3.11c-.118.431-2.45 1.566-7 1.566s-6.882-1.135-7-1.555v-1.222c1.656.833 4.39 1.222 7 1.222 2.61 0 5.345-.393 7-1.223v1.211zm0-3.111c-.118.431-2.45 1.567-7 1.567s-6.882-1.136-7-1.556v-1.222c1.656.833 4.39 1.222 7 1.222 2.61 0 5.345-.392 7-1.223v1.212zm0-3.111c-.118.431-2.45 1.567-7 1.567s-6.882-1.136-7-1.556v-1.222c1.656.833 4.39 1.222 7 1.222 2.61 0 5.345-.392 7-1.223v1.212zm0-3.111c-.118.431-2.45 1.567-7 1.567s-6.882-1.136-7-1.556v-1.222c1.656.83 4.39 1.222 7 1.222 2.61 0 5.345-.392 7-1.223v1.212zm0-3.111c-.118.431-2.45 1.567-7 1.567s-6.882-1.136-7-1.555v-1.223c1.656.83 4.39 1.223 7 1.223 2.61 0 5.345-.393 7-1.224v1.212zm-7-1.544c-4.543 0-6.874-1.132-7-1.541v-.005c.126-.433 2.457-1.565 7-1.565 4.51 0 6.844 1.116 7 1.556-.156.44-2.49 1.555-7 1.555z" fill="#000"/><path d="M13.11 30.334H7.231l-2.787-3.049V22.23l3.078-3.006h5.588a.667.667 0 1 0 0-1.333H7.251a.667.667 0 0 0-.466.19L3.31 21.468a.836.836 0 0 0-.2.544v5.531c0 .166.061.327.173.45l3.16 3.456a.667.667 0 0 0 .492.217h6.174a.667.667 0 0 0 0-1.333zm6.61-6.332h-.777c-.242 0-.389-.136-.389-.195s.147-.194.389-.194h1.944a.778.778 0 0 0 0-1.556h-.777a.778.778 0 0 0-1.556 0v.035A1.81 1.81 0 0 0 17 23.803a1.857 1.857 0 0 0 1.944 1.754h.778c.241 0 .389.135.389.194 0 .06-.148.195-.39.195h-1.944a.778.778 0 0 0 0 1.555h.778a.778.778 0 0 0 1.556 0v-.035a1.81 1.81 0 0 0 1.555-1.71 1.857 1.857 0 0 0-1.944-1.754z" fill="#000"/></svg>