<svg width="55" height="50" fill="none" xmlns="http://www.w3.org/2000/svg"><path d="M52.222 16.667h-9.63v-2.963A3.708 3.708 0 0 0 38.89 10H25.556a3.708 3.708 0 0 0-3.704 3.704v2.963h-9.63A2.222 2.222 0 0 0 10 18.889v16.489a2.23 2.23 0 0 0 1.482 2.09v10.31c0 1.227.995 2.222 2.222 2.222H50.74a2.222 2.222 0 0 0 2.222-2.222V37.47a2.232 2.232 0 0 0 1.481-2.092v-16.49a2.222 2.222 0 0 0-2.222-2.221zm-14.074 0H26.296v-2.223h11.852v2.223z" fill="#00A86B" fill-opacity=".7"/><path d="M47.5 7.5H36.667V4.167A4.172 4.172 0 0 0 32.5 0h-15a4.172 4.172 0 0 0-4.167 4.167V7.5H2.5A2.5 2.5 0 0 0 0 10v18.55a2.51 2.51 0 0 0 1.667 2.352V42.5a2.5 2.5 0 0 0 2.5 2.5h41.666a2.5 2.5 0 0 0 2.5-2.5V30.903A2.512 2.512 0 0 0 50 28.55V10a2.5 2.5 0 0 0-2.5-2.5zM15 4.167a2.5 2.5 0 0 1 2.5-2.5h15a2.5 2.5 0 0 1 2.5 2.5V7.5h-1.667V4.167a.833.833 0 0 0-.833-.834h-15a.833.833 0 0 0-.833.834V7.5H15V4.167zM31.667 7.5H18.333V5h13.334v2.5zm15 35c0 .46-.373.833-.834.833H4.167a.833.833 0 0 1-.834-.833V31.189l18.334 2.528v2.116a2.5 2.5 0 0 0 2.5 2.5h1.666a2.5 2.5 0 0 0 2.5-2.5v-2.116l18.334-2.528V42.5zm-20-6.667c0 .46-.373.834-.834.834h-1.666a.833.833 0 0 1-.834-.834v-5c0-.46.373-.833.834-.833h1.666c.46 0 .834.373.834.833v5zm21.666-7.283a.833.833 0 0 1-.716.826l-.231.032-19.053 2.627v-1.202a2.5 2.5 0 0 0-2.5-2.5h-1.666a2.5 2.5 0 0 0-2.5 2.5v1.202l-19.283-2.66a.833.833 0 0 1-.717-.825V10c0-.46.373-.833.833-.833h45c.46 0 .833.373.833.833v18.55z" fill="#000"/></svg>