<svg width="54" height="50" fill="none" xmlns="http://www.w3.org/2000/svg"><path d="M36.18 10c-9.212 0-16.733 5.769-17.219 13.012C13.583 24.747 10 28.93 10 33.578a10.514 10.514 0 0 0 4.728 8.467v7.304a.65.65 0 0 0 1.093.477l5.57-5.1c.957.157 1.926.235 2.897.234 6.072 0 11.416-3.02 13.446-7.547a23.054 23.054 0 0 0 2.03-.235l6.835 6.255a.65.65 0 0 0 1.093-.477v-8.97c3.67-2.602 5.77-6.324 5.77-10.245C53.451 16.168 45.705 10 36.18 10zM24.289 43.659c-1.001 0-2-.09-2.985-.27a.65.65 0 0 0-.555.157l-4.71 4.337v-6.185a.65.65 0 0 0-.287-.538c-2.845-1.917-4.45-4.71-4.45-7.59 0-3.956 3.028-7.556 7.617-9.187.044.585.14 1.166.286 1.735.64 2.64 2.101 5.01 4.173 6.766.121.113 4.528 4.45 12.9 4.555-2.022 3.773-6.69 6.22-11.99 6.22zm22.38-10.55a.65.65 0 0 0-.285.539v7.807l-5.986-5.474a.65.65 0 0 0-.443-.173h-.121c-1.145.212-2.306.32-3.47.32-6.298 0-10.106-2.446-11.971-4.016a12.952 12.952 0 0 1-3.973-6.228 9.777 9.777 0 0 1-.26-2.178c.051-6.818 7.217-12.413 16.022-12.413s15.97 5.578 15.97 12.44c0 3.59-1.995 7.009-5.482 9.377z" fill="#00A86B" fill-opacity=".7"/><path d="M46.669 33.11a.65.65 0 0 0-.286.538v7.807l-5.986-5.474a.65.65 0 0 0-.443-.173h-.121c-1.145.212-2.306.32-3.47.32-6.298 0-10.106-2.446-11.971-4.016a12.952 12.952 0 0 1-3.973-6.228 9.777 9.777 0 0 1-.26-2.178c.051-6.818 7.217-12.413 16.022-12.413s15.97 5.578 15.97 12.44c0 3.59-1.995 7.009-5.482 9.377z" fill="#00A86B" fill-opacity=".7"/><path d="M24.288 43.659c-1.001 0-2-.09-2.985-.27a.65.65 0 0 0-.555.157l-4.71 4.337v-6.185a.65.65 0 0 0-.287-.538c-2.845-1.917-4.45-4.71-4.45-7.59 0-3.956 3.028-7.556 7.617-9.187.044.585.14 1.166.286 1.735.64 2.64 2.101 5.01 4.173 6.766.121.113 4.528 4.45 12.9 4.555-2.022 3.773-6.69 6.22-11.99 6.22z" fill="#00A86B" fill-opacity=".7"/><path d="M29.453 0C19.09 0 10.628 6.49 10.081 14.639 4.031 16.59 0 21.295 0 26.526a11.828 11.828 0 0 0 5.319 9.525v8.217a.732.732 0 0 0 1.23.537l6.265-5.739c1.077.177 2.168.265 3.26.264 6.83 0 12.843-3.396 15.126-8.49a25.942 25.942 0 0 0 2.284-.264l7.69 7.036a.732.732 0 0 0 1.23-.537v-10.09c4.128-2.928 6.49-7.115 6.49-11.526C48.884 6.939 40.169 0 29.454 0zm-13.38 37.866c-1.126.001-2.25-.1-3.357-.303a.732.732 0 0 0-.624.176l-5.3 4.88V35.66a.732.732 0 0 0-.322-.605c-3.2-2.157-5.006-5.3-5.006-8.54 0-4.45 3.406-8.5 8.569-10.334.05.659.157 1.312.322 1.952a14.443 14.443 0 0 0 4.694 7.612c.136.127 5.094 5.006 14.512 5.123-2.274 4.246-7.525 6.998-13.488 6.998zm25.18-11.867a.732.732 0 0 0-.323.605v8.783l-6.734-6.158a.732.732 0 0 0-.497-.195h-.137c-1.287.239-2.594.36-3.904.36-7.085 0-11.37-2.751-13.467-4.518a14.57 14.57 0 0 1-4.47-7.007 10.983 10.983 0 0 1-.293-2.45c.059-7.67 8.12-13.965 18.025-13.965 9.906 0 17.967 6.275 17.967 13.995 0 4.04-2.245 7.885-6.168 10.55z" fill="#000"/></svg>