<svg width="104" height="75" fill="none" xmlns="http://www.w3.org/2000/svg"><path d="M103.075 43.774l-40.601-28.5a1.502 1.502 0 0 0-2.369 1.226v26.665L20.368 15.291a1.512 1.512 0 0 0-1.557-.104A1.502 1.502 0 0 0 18 16.519v56.963a1.502 1.502 0 0 0 2.368 1.225l39.737-27.873V73.5a1.502 1.502 0 0 0 2.369 1.225l40.601-28.5a1.49 1.49 0 0 0 .639-1.225 1.49 1.49 0 0 0-.639-1.226zM21.008 70.593V19.408L57.492 45 21.008 70.593zm42.105.016V19.39L99.599 45 63.113 70.61z" fill="#00A86B" fill-opacity=".7"/><path d="M63.113 70.61V19.39L99.599 45 63.113 70.61zm-42.105-.017V19.408L57.492 45 21.008 70.593z" fill="#00A86B" fill-opacity=".7"/><path d="M95.71 32.371L50.033.308a1.69 1.69 0 0 0-2.665 1.379v29.999L2.664.326A1.7 1.7 0 0 0 .912.21C.352.5 0 1.08 0 1.71v64.083a1.69 1.69 0 0 0 2.664 1.379l44.704-31.357v29.998a1.69 1.69 0 0 0 2.665 1.38L95.71 35.128a1.679 1.679 0 0 0 0-2.758zM2.664 63.5V4L45.5 33.75 2.664 63.5zm47.369 0V4L92.5 33.75 50.033 63.5z" fill="#000"/></svg>