<svg width="30" height="30" fill="none" xmlns="http://www.w3.org/2000/svg"><circle cx="15.652" cy="14.348" r="13.043" fill="#fff"/><path d="M19.47 7.981h-8.94a2.591 2.591 0 0 0-2.59 2.589v8.941a2.591 2.591 0 0 0 2.588 2.589h8.942a2.592 2.592 0 0 0 2.588-2.589V10.57a2.591 2.591 0 0 0-2.588-2.589zM15 19.688a4.653 4.653 0 0 1-4.648-4.648A4.653 4.653 0 0 1 15 10.393a4.653 4.653 0 0 1 4.648 4.647A4.653 4.653 0 0 1 15 19.688zm4.797-8.334a1.101 1.101 0 1 1 1.1-1.1 1.1 1.1 0 0 1-1.1 1.1z" fill="url(#paint0_linear)"/><path d="M15 12.357a2.687 2.687 0 0 0-2.684 2.683A2.688 2.688 0 0 0 15 17.724a2.687 2.687 0 0 0 2.683-2.684A2.687 2.687 0 0 0 15 12.357z" fill="url(#paint1_linear)"/><path d="M15 0C6.716 0 0 6.716 0 15c0 8.284 6.716 15 15 15 8.284 0 15-6.716 15-15 0-8.284-6.716-15-15-15zm9.023 19.511a4.557 4.557 0 0 1-4.552 4.552h-8.942a4.557 4.557 0 0 1-4.552-4.552V10.57a4.557 4.557 0 0 1 4.552-4.552h8.942a4.557 4.557 0 0 1 4.552 4.552v8.941z" fill="url(#paint2_linear)"/><defs><linearGradient id="paint0_linear" x1="15" y1="22.059" x2="15" y2="8.091" gradientUnits="userSpaceOnUse"><stop stop-color="#E09B3D"/><stop offset=".3" stop-color="#C74C4D"/><stop offset=".6" stop-color="#C21975"/><stop offset="1" stop-color="#7024C4"/></linearGradient><linearGradient id="paint1_linear" x1="15" y1="17.709" x2="15" y2="12.399" gradientUnits="userSpaceOnUse"><stop stop-color="#E09B3D"/><stop offset=".3" stop-color="#C74C4D"/><stop offset=".6" stop-color="#C21975"/><stop offset="1" stop-color="#7024C4"/></linearGradient><linearGradient id="paint2_linear" x1="15" y1="29.913" x2="15" y2=".233" gradientUnits="userSpaceOnUse"><stop stop-color="#E09B3D"/><stop offset=".3" stop-color="#C74C4D"/><stop offset=".6" stop-color="#C21975"/><stop offset="1" stop-color="#7024C4"/></linearGradient></defs></svg>