<svg width="32" height="32" fill="none" xmlns="http://www.w3.org/2000/svg"><rect width="32" height="32" rx="3" fill="#00A86B"/><path d="M13.158 9H9.297a.235.235 0 0 0-.24.208c-.116 1.1-.426 6.344 3.59 10.55 4.322 4.529 10.217 4.393 11.417 4.314a.236.236 0 0 0 .219-.242v-3.948a.251.251 0 0 0-.209-.248c-.494-.085-1.75-.313-2.491-.534-.686-.205-1.559-.678-1.956-.905a.256.256 0 0 0-.345.088l-1.16 1.905s-2.107-1.228-3.113-2.255c-1.007-1.027-2.148-2.9-2.148-2.9l1.82-1.16a.254.254 0 0 0 .085-.336c-.229-.414-.731-1.361-.938-2.047-.21-.695-.361-1.8-.42-2.268a.253.253 0 0 0-.25-.222z" stroke="#fff" stroke-width="1.5"/></svg>