<svg width="104" height="75" viewBox="0 0 104 75" fill="none" xmlns="http://www.w3.org/2000/svg">
<path d="M103.075 43.7743L62.4737 15.2741C62.0135 14.9501 61.4165 14.9111 60.9158 15.1691C60.418 15.4256 60.1053 15.9401 60.1053 16.4996V43.1653L20.3684 15.2906C19.9098 14.9711 19.3113 14.9291 18.8105 15.1871C18.3128 15.4451 18 15.9596 18 16.5191V73.482C18 74.0415 18.3128 74.556 18.8105 74.814C19.0301 74.925 19.2677 74.9805 19.5038 74.9805C19.8075 74.9805 20.1098 74.8875 20.3684 74.7075L60.1053 46.8343V73.5C60.1053 74.0595 60.418 74.574 60.9158 74.832C61.1353 74.9445 61.3729 75 61.609 75C61.9128 75 62.2165 74.907 62.4737 74.7255L103.075 46.2253C103.477 45.9463 103.714 45.4873 103.714 44.9998C103.714 44.5123 103.477 44.0533 103.075 43.7743ZM21.0075 70.593V19.4081L57.4917 44.9998L21.0075 70.593ZM63.1128 70.6095V19.3901L99.5985 44.9998L63.1128 70.6095Z" fill="#00A86B" fill-opacity="0.7"/>
<path d="M63.1128 70.6095V19.3901L99.5985 44.9998L63.1128 70.6095Z" fill="#00A86B" fill-opacity="0.7"/>
<path d="M21.0075 70.593V19.4081L57.4917 44.9998L21.0075 70.593Z" fill="#00A86B" fill-opacity="0.7"/>
<path d="M95.7096 32.3711L50.0329 0.30835C49.5152 -0.0561524 48.8436 -0.100027 48.2803 0.190225C47.7203 0.478789 47.3684 1.05761 47.3684 1.68705V31.6859L2.66447 0.326914C2.1485 -0.0325262 1.47519 -0.0797769 0.911842 0.210475C0.35188 0.500727 0 1.07954 0 1.70898V65.7922C0 66.4217 0.35188 67.0005 0.911842 67.2907C1.15883 67.4156 1.42613 67.4781 1.69173 67.4781C2.03346 67.4781 2.3735 67.3734 2.66447 67.1709L47.3684 35.8136V65.8125C47.3684 66.4419 47.7203 67.0207 48.2803 67.311C48.5273 67.4376 48.7945 67.5 49.0602 67.5C49.4019 67.5 49.7436 67.3954 50.0329 67.1912L95.7096 35.1285C96.1613 34.8146 96.4286 34.2982 96.4286 33.7498C96.4286 33.2013 96.1613 32.6849 95.7096 32.3711ZM2.66447 63.5V4L45.5 33.7498L2.66447 63.5ZM50.0329 63.5V4L92.5 33.7498L50.0329 63.5Z" fill="black"/>
</svg>
