<svg width="75" height="75" viewBox="0 0 75 75" fill="none" xmlns="http://www.w3.org/2000/svg">
<path d="M73.7377 72.8333H67.2377V37.0833C67.2377 36.4851 66.7527 36 66.1544 36H50.9877V11.0833C50.9877 10.4851 50.5027 10 49.9044 10H21.7377C21.1394 10 20.6544 10.4851 20.6544 11.0833V72.8333H10.9044C10.3061 72.8333 9.82104 73.3184 9.82104 73.9167C9.82104 74.5149 10.3061 75 10.9044 75H73.7377C74.336 75 74.821 74.5149 74.821 73.9167C74.821 73.3184 74.336 72.8333 73.7377 72.8333Z" fill="#00A86B" fill-opacity="0.7"/>
<path d="M73.75 72.5H66.25V31.25C66.25 30.5597 65.6903 30 65 30H47.5V1.25C47.5 0.559687 46.9403 0 46.25 0H13.75C13.0597 0 12.5 0.559687 12.5 1.25V72.5H1.25C0.559687 72.5 0 73.0597 0 73.75C0 74.4403 0.559687 75 1.25 75H73.75C74.4403 75 75 74.4403 75 73.75C75 73.0597 74.4403 72.5 73.75 72.5ZM26.25 72.5H21.25V61.25C21.25 60.5597 21.8097 60 22.5 60H25C25.6903 60 26.25 60.5597 26.25 61.25V72.5ZM31.25 31.25V72.5H28.75V61.25C28.75 59.1789 27.0711 57.5 25 57.5H22.5C20.4289 57.5 18.75 59.1789 18.75 61.25V72.5H15V2.5H45V30H32.5C31.8097 30 31.25 30.5597 31.25 31.25ZM63.75 72.5H33.75V32.5H63.75V72.5Z" fill="#262626"/>
</svg>
