<svg width="96" height="75" viewBox="0 0 96 75" fill="none" xmlns="http://www.w3.org/2000/svg">
<path d="M68.6905 40.5897C68.0585 39.7802 67.1069 39.3159 66.0799 39.3159H29.4329C28.406 39.3159 27.4546 39.7802 26.8224 40.5897C26.1903 41.3993 25.9706 42.4348 26.2198 43.4312L27.0746 46.8503C27.4439 48.3272 28.7653 49.3588 30.2877 49.3588H65.2254C66.7478 49.3588 68.0689 48.3272 68.4385 46.8501L69.2932 43.4312C69.5423 42.4346 69.3225 41.3991 68.6905 40.5897ZM66.1837 42.654L65.3289 46.0727C65.3169 46.1207 65.2744 46.1537 65.2254 46.1537H30.2877C30.2386 46.1537 30.1957 46.1203 30.184 46.0729L29.3292 42.654C29.3253 42.6389 29.3165 42.6035 29.3486 42.5624C29.3807 42.5214 29.4173 42.5214 29.4327 42.5214H66.0799C66.0956 42.5214 66.132 42.5214 66.1641 42.5624C66.1962 42.6035 66.1876 42.6387 66.1837 42.654Z" fill="black"/>
<path d="M91.6357 36.4814C94.0417 36.4814 95.9991 34.5291 95.9991 32.1295C95.9991 29.7299 94.0417 27.7777 91.6357 27.7777H90.1502C87.9807 27.7777 86.1765 29.3654 85.8425 31.4366L82.1274 21.2473C81.2902 18.9504 79.0811 17.4073 76.6306 17.4073H66.0389L65.2549 13.4985C64.8487 11.4713 63.049 10 60.9762 10H48.0217C45.949 10 44.1496 11.4713 43.743 13.4985L42.9592 17.4073H32.3675C29.917 17.4073 27.708 18.9505 26.8707 21.2471L23.1558 31.4364C22.822 29.3654 21.0177 27.7777 18.8482 27.7777H17.3628C14.9566 27.7777 12.9991 29.7299 12.9991 32.1295C12.9991 34.5291 14.9566 36.4814 17.3626 36.4814H18.8481C19.5339 36.4814 20.183 36.3223 20.7611 36.0398L17.5773 40.0091C16.5407 41.3013 15.97 42.924 15.97 44.5786V72.1296C15.97 73.7124 17.261 75 18.8481 75H23.3044C24.8915 75 26.1825 73.7124 26.1825 72.1296V66.1111H82.8156V72.1296C82.8156 73.7124 84.1066 75 85.6937 75H90.1501C91.7371 75 93.0282 73.7124 93.0282 72.1296V44.5786C93.0282 42.924 92.4574 41.3011 91.4209 40.0091L88.237 36.0398C88.8151 36.3223 89.4642 36.4814 90.1501 36.4814H91.6357Z" fill="#00A86B" fill-opacity="0.7"/>
<path d="M90.4918 30.5554C93.2605 30.5554 95.5131 28.3028 95.5131 25.5341C95.5131 22.7653 93.2605 20.5127 90.4918 20.5127H88.7824C86.2858 20.5127 84.2096 22.3447 83.8253 24.7345L79.5501 12.9777C78.5866 10.3274 76.0445 8.54693 73.2246 8.54693H61.0361L60.1339 4.03674C59.6664 1.6976 57.5953 0 55.2101 0H40.3026C37.9174 0 35.8467 1.6976 35.3788 4.03674L34.4769 8.54693H22.2883C19.4684 8.54693 16.9263 10.3275 15.9628 12.9775L11.6879 24.7344C11.3038 22.3447 9.22746 20.5127 6.73088 20.5127H5.02153C2.25258 20.5127 0 22.7653 0 25.5341C0 28.3028 2.25258 30.5554 5.02134 30.5554H6.73069C7.51998 30.5554 8.26692 30.3719 8.93216 30.046L5.26833 34.6259C4.07554 36.1168 3.4187 37.9892 3.4187 39.8984V71.688C3.4187 73.5143 4.90438 75 6.73069 75H11.8589C13.6852 75 15.1709 73.5143 15.1709 71.688V64.7435H80.342V71.688C80.342 73.5143 81.8277 75 83.654 75H88.7822C90.6086 75 92.0942 73.5143 92.0942 71.688V39.8984C92.0942 37.9892 91.4374 36.1166 90.2446 34.6259L86.5808 30.046C87.246 30.3719 87.993 30.5554 88.7822 30.5554H90.4918ZM6.73088 27.3503H5.02153C4.01995 27.3503 3.20529 26.5357 3.20529 25.5341C3.20529 24.5325 4.01995 23.7178 5.02153 23.7178H6.73088C7.73246 23.7178 8.54712 24.5325 8.54712 25.5341C8.54712 26.5355 7.73227 27.3503 6.73088 27.3503ZM38.5218 4.66503C38.691 3.81903 39.44 3.20491 40.3026 3.20491H55.2101C56.0729 3.20491 56.8219 3.81903 56.9909 4.66503L57.7673 8.54693H37.7454L38.5218 4.66503ZM11.9658 71.688C11.9658 71.747 11.9179 71.7949 11.8589 71.7949H6.73069C6.67174 71.7949 6.6238 71.747 6.6238 71.688V63.7433C7.64982 64.3768 8.85754 64.7435 10.1494 64.7435H11.9656L11.9658 71.688ZM66.6669 61.5384H28.8463V58.0128C28.8463 57.9539 28.8942 57.906 28.9532 57.906H66.5602C66.6191 57.906 66.667 57.9539 66.667 58.0128L66.6669 61.5384ZM88.8891 71.688C88.8891 71.747 88.8412 71.7949 88.7822 71.7949H83.654C83.5951 71.7949 83.5471 71.747 83.5471 71.688V64.7435H85.3634C86.6552 64.7435 87.8629 64.3768 88.889 63.7433L88.8891 71.688ZM87.7422 36.6282C88.4817 37.5529 88.8893 38.7143 88.8893 39.8986V58.0128C88.8893 59.9569 87.3078 61.5384 85.3637 61.5384H69.8719V58.0128C69.8719 56.1865 68.3863 54.7009 66.56 54.7009H28.9532C27.1268 54.7009 25.6412 56.1865 25.6412 58.0128V61.5384H10.1496C8.20555 61.5384 6.62398 59.9569 6.62398 58.0128V39.8986C6.62398 38.7143 7.03141 37.5529 7.77126 36.6282L12.6292 30.5554H77.013C77.898 30.5554 78.6157 29.838 78.6157 28.9528C78.6157 28.0678 77.8982 27.3501 77.013 27.3501H14.1471L18.9754 14.0725C19.48 12.6844 20.8116 11.7518 22.2887 11.7518H73.2248C74.7019 11.7518 76.0333 12.6846 76.5381 14.0725L81.3664 27.3501H75.1075C74.2225 27.3501 73.5048 28.0676 73.5048 28.9528C73.5048 29.8378 74.2223 30.5554 75.1075 30.5554H82.8843L87.7422 36.6282ZM86.966 25.5341C86.966 24.5325 87.7807 23.7178 88.7822 23.7178H90.4916C91.4932 23.7178 92.3078 24.5325 92.3078 25.5341C92.3078 26.5357 91.4932 27.3503 90.4916 27.3503H88.7822C87.7809 27.3503 86.966 26.5355 86.966 25.5341Z" fill="#262626"/>
<path d="M16.1326 37.6069C12.8924 37.6069 10.2565 40.2429 10.2565 43.483C10.2565 46.7232 12.8924 49.3592 16.1326 49.3592C19.3727 49.3592 22.0087 46.7232 22.0087 43.483C22.0087 40.2429 19.3727 37.6069 16.1326 37.6069ZM16.1326 46.1539C14.6598 46.1539 13.4616 44.9559 13.4616 43.4829C13.4616 42.0099 14.6596 40.8118 16.1326 40.8118C17.6056 40.8118 18.8036 42.0099 18.8036 43.4829C18.8036 44.9559 17.6054 46.1539 16.1326 46.1539Z" fill="#262626"/>
<path d="M79.3805 37.6069C76.1403 37.6069 73.5044 40.2429 73.5044 43.483C73.5044 46.7232 76.1403 49.3592 79.3805 49.3592C82.6207 49.3592 85.2566 46.7232 85.2566 43.483C85.2566 40.2429 82.6207 37.6069 79.3805 37.6069ZM79.3805 46.1539C77.9077 46.1539 76.7095 44.9559 76.7095 43.4829C76.7095 42.0099 77.9075 40.8118 79.3805 40.8118C80.8533 40.8118 82.0515 42.0099 82.0515 43.4829C82.0515 44.9559 80.8535 46.1539 79.3805 46.1539Z" fill="#262626"/>
</svg>
