<svg width="86" height="75" viewBox="0 0 86 75" fill="none" xmlns="http://www.w3.org/2000/svg">
<path d="M85.3704 29.3824C84.3486 18.1504 76.3883 10.0013 66.4261 10.0013C59.7891 10.0013 53.7122 13.5683 50.2928 19.2851C46.9043 13.4944 41.0764 10 34.5458 10C24.585 10 16.6233 18.149 15.6029 29.381C15.5221 29.8771 15.1909 32.4882 16.1979 36.7462C17.6492 42.8879 21.0013 48.4743 25.8895 52.8977L50.2766 75L75.0824 52.8991C79.9706 48.4743 83.3227 42.8892 84.774 36.7462C85.781 32.4895 85.4498 29.8785 85.3704 29.3824Z" fill="#00A86B" fill-opacity="0.7"/>
<path d="M80.5317 22.3643C79.3543 9.40428 70.1811 0.00155142 58.7012 0.00155142C51.053 0.00155142 44.0502 4.11728 40.1098 10.7136C36.205 4.03196 29.4892 0 21.9636 0C10.4852 0 1.31052 9.40273 0.1346 22.3627C0.0415193 22.9352 -0.340113 25.9479 0.820297 30.861C2.49265 37.9476 6.35551 44.3934 11.9885 49.4974L40.0912 75L68.6763 49.4989C74.3093 44.3934 78.1721 37.9491 79.8445 30.861C81.0049 25.9494 80.6233 22.9367 80.5317 22.3643ZM76.824 30.1505C75.2975 36.6227 71.7589 42.5194 66.6006 47.1921L40.1098 70.8269L14.0735 47.1983C8.90593 42.5163 5.36885 36.6212 3.84077 30.1489C2.74242 25.4995 3.19386 22.8731 3.19541 22.856L3.21868 22.6993C4.22706 11.345 12.1095 3.1027 21.9636 3.1027C29.2348 3.1027 35.6357 7.57058 38.6732 14.7611L40.102 18.1477L41.5308 14.7611C44.5203 7.68073 51.2593 3.10425 58.7027 3.10425C68.5553 3.10425 76.4393 11.3466 77.4678 22.8483C77.4709 22.8731 77.9224 25.5011 76.824 30.1505Z" fill="#262626"/>
</svg>
