<svg width="75" height="75" viewBox="0 0 75 75" fill="none" xmlns="http://www.w3.org/2000/svg">
<path d="M64.8868 32.9672L69.7647 28.6304L69.7833 28.615C73.7052 24.9816 75.5932 19.6544 74.8351 14.3616L74.658 13.1049C74.4452 11.6762 73.3238 10.5542 71.8952 10.341L70.648 10.1648C65.3446 9.40516 60.0068 11.3012 56.3697 15.2353L52.033 20.1138L49.6892 18.7653C43.5191 15.2263 36.5282 13.3696 29.4154 13.3797L27.3984 13.3871C25.4648 13.3961 23.6807 14.43 22.7115 16.1032L22.3317 16.7632C22.0325 17.2825 22.2102 17.9462 22.729 18.2459L43.4284 30.197L27.2531 48.5236L26.0144 50.1161C22.6553 48.2758 18.8872 47.3093 15.0565 47.3055L13.4205 47.2981C12.2624 47.3114 11.1951 47.9294 10.6078 48.9278L10.1457 49.7188C10.0015 49.9681 9.96219 50.2652 10.037 50.5437C10.1113 50.8222 10.2938 51.0599 10.5436 51.2036L21.0819 57.2879C20.7832 57.8656 20.4999 58.4449 20.2421 59.0402C19.6755 60.3823 19.8145 61.9186 20.6129 63.1372C21.4113 64.3558 22.7641 65.0969 24.2208 65.1138C24.8187 65.1128 25.4102 64.9897 25.9592 64.7531C25.9868 64.742 26.0144 64.7292 26.0404 64.7149C26.5836 64.4815 27.1433 64.2067 27.7114 63.9133L33.7957 74.4517C33.9389 74.7026 34.176 74.8867 34.4551 74.962C34.7341 75.0379 35.0317 74.9991 35.2821 74.8548L36.0805 74.3933H36.0869C37.0847 73.8007 37.7001 72.7286 37.708 71.5684L37.7006 69.9525C37.6958 66.1186 36.7266 62.3473 34.8821 58.986L36.4518 57.7648L54.7926 41.5703L66.7499 62.2725C67.0502 62.7913 67.7138 62.9696 68.2332 62.6704L68.8926 62.291C70.5663 61.3213 71.6002 59.5367 71.6087 57.602L71.6151 55.5877C71.6442 48.4726 69.7864 41.4764 66.2316 35.3131L64.8868 32.9672Z" fill="#00A86B" fill-opacity="0.7"/>
<path d="M63.3317 26.5007L68.96 21.4966L68.9815 21.4789C73.5068 17.2865 75.6853 11.1397 74.8106 5.03262L74.6062 3.58253C74.3607 1.93411 73.0667 0.639486 71.4183 0.393416L69.9792 0.190195C63.8599 -0.686351 57.7008 1.50134 53.5042 6.04077L48.5002 11.6698L45.7958 10.1138C38.6763 6.03037 30.6099 3.88797 22.4027 3.8996L20.0755 3.90817C17.8443 3.91858 15.7858 5.11159 14.6674 7.04219L14.2292 7.80366C13.8839 8.40292 14.089 9.16867 14.6876 9.51452L38.5717 23.3042L19.9077 44.4503L18.4785 46.2878C14.6025 44.1644 10.2547 43.0491 5.83464 43.0449L3.94688 43.0363C2.61064 43.0516 1.37907 43.7647 0.701459 44.9167L0.168309 45.8294C0.0018141 46.1171 -0.0434823 46.4598 0.0428258 46.7812C0.128521 47.1026 0.339088 47.3768 0.627394 47.5427L12.787 54.563C12.4424 55.2296 12.1155 55.898 11.818 56.5848C11.1643 58.1334 11.3247 59.9061 12.2459 61.3121C13.1671 62.7182 14.728 63.5733 16.4089 63.5929C17.0987 63.5917 17.7813 63.4496 18.4148 63.1766C18.4466 63.1638 18.4785 63.1491 18.5084 63.1326C19.1352 62.8632 19.781 62.5462 20.4366 62.2077L27.4569 74.3673C27.6222 74.6568 27.8958 74.8692 28.2178 74.9562C28.5398 75.0437 28.8832 74.999 29.1721 74.8325L30.0933 74.3H30.1006C31.252 73.6162 31.9621 72.3792 31.9713 71.0405L31.9627 69.176C31.9572 64.7522 30.8389 60.4007 28.7105 56.5224L30.5218 55.1133L51.6844 36.4273L65.4814 60.3144C65.8279 60.9131 66.5936 61.1187 67.1929 60.7735L67.9537 60.3358C69.8849 59.2169 71.0779 57.1577 71.0877 54.9254L71.0951 52.6012C71.1288 44.3915 68.9851 36.319 64.8834 29.2074L63.3317 26.5007ZM20.0846 6.41539L22.4113 6.40682C30.1772 6.38907 37.8102 8.417 44.5435 12.2862L46.8303 13.6016L40.244 21.384L17.0406 7.98362C17.7464 7.00485 18.8776 6.42212 20.0846 6.41539ZM3.95301 45.5435L5.83342 45.5521C9.69952 45.5527 13.5075 46.4917 16.9304 48.2888L16.1432 49.3031C15.6878 49.8785 15.2557 50.4863 14.8345 51.1107C14.7091 51.2912 14.5964 51.4755 14.4771 51.6597C14.3228 51.8991 14.1612 52.1298 14.0119 52.3753L2.98036 46.0105C3.21908 45.718 3.57533 45.5466 3.95301 45.5435ZM29.4487 69.1778L29.4579 71.0301C29.4579 71.4139 29.2853 71.7768 28.989 72.0192L22.6255 60.9877C22.8685 60.8396 23.0968 60.6817 23.3337 60.5286C23.5204 60.4038 23.7102 60.2893 23.8932 60.165C24.501 59.7568 25.0917 59.3369 25.6481 58.8992L25.6855 58.8717L26.7138 58.0716C28.5116 61.4976 29.45 65.3086 29.4487 69.1778ZM28.9211 53.1827L26.341 55.1886C26.3349 55.1886 26.3264 55.1886 26.3202 55.1996L24.1338 56.9049C22.9255 57.8519 21.6437 58.7021 20.3001 59.4458C19.3721 59.9716 18.4166 60.4478 17.4385 60.8727C17.4103 60.8837 17.384 60.8959 17.3564 60.91C16.4132 61.2742 15.3432 61.0385 14.6399 60.3126C13.936 59.586 13.7346 58.5093 14.1288 57.5776C14.556 56.5921 15.0347 55.6299 15.5642 54.6946C16.3091 53.3449 17.1606 52.057 18.1112 50.8438L19.8037 48.672C19.8037 48.672 19.8037 48.6585 19.8135 48.6524L21.8383 46.0448L55.3601 7.72592C58.4415 4.40153 62.7673 2.50949 67.3006 2.5046C68.0768 2.5046 68.8517 2.5603 69.6199 2.67231L71.059 2.87554C71.6087 2.95695 72.042 3.38726 72.1253 3.93755L72.3297 5.38642C73.0851 10.6745 71.1985 15.9968 67.2816 19.6285L28.9211 53.1827ZM68.5854 54.918C68.5787 56.1239 67.9953 57.2544 67.016 57.959L53.6174 34.7495L61.4023 28.1693L62.7195 30.4586C66.6003 37.1894 68.6271 44.8292 68.5928 52.5987L68.5854 54.918Z" fill="#262626"/>
<path d="M60.5508 9.29803C62.029 8.42333 63.9125 8.66144 65.1263 9.87648C66.3402 11.0921 66.577 12.975 65.7005 14.4526C65.3473 15.0482 65.5438 15.817 66.1388 16.1708C66.7344 16.524 67.5038 16.3282 67.857 15.7326C69.3175 13.2706 68.9245 10.1317 66.9015 8.10564C64.8784 6.08016 61.7401 5.68228 59.2758 7.13911C58.8852 7.36437 58.6459 7.78244 58.649 8.23296C58.6514 8.68409 58.8962 9.09849 59.2898 9.31885C59.6834 9.53921 60.1652 9.53125 60.5508 9.29803Z" fill="black"/>
</svg>
