<svg width="13" height="14" viewBox="0 0 13 14" fill="none" xmlns="http://www.w3.org/2000/svg">
<g clip-path="url(#clip0)">
<path d="M11.4766 1.51562H10.8672V0.5H9.85156V1.51562H3.14844V0.5H2.13281V1.51562H1.52344C0.683414 1.51562 0 2.19904 0 3.03906V11.9766C0 12.8166 0.683414 13.5 1.52344 13.5H11.4766C12.3166 13.5 13 12.8166 13 11.9766V3.03906C13 2.19904 12.3166 1.51562 11.4766 1.51562ZM11.9844 11.9766C11.9844 12.2566 11.7566 12.4844 11.4766 12.4844H1.52344C1.24343 12.4844 1.01562 12.2566 1.01562 11.9766V5.27344H11.9844V11.9766ZM11.9844 4.25781H1.01562V3.03906C1.01562 2.75905 1.24343 2.53125 1.52344 2.53125H2.13281V3.54688H3.14844V2.53125H9.85156V3.54688H10.8672V2.53125H11.4766C11.7566 2.53125 11.9844 2.75905 11.9844 3.03906V4.25781Z" fill="black"/>
<path d="M2.94531 6.33984H1.92969V7.35547H2.94531V6.33984Z" fill="black"/>
<path d="M4.97656 6.33984H3.96094V7.35547H4.97656V6.33984Z" fill="black"/>
<path d="M7.00781 6.33984H5.99219V7.35547H7.00781V6.33984Z" fill="black"/>
<path d="M9.03906 6.33984H8.02344V7.35547H9.03906V6.33984Z" fill="black"/>
<path d="M11.0703 6.33984H10.0547V7.35547H11.0703V6.33984Z" fill="black"/>
<path d="M2.94531 8.37109H1.92969V9.38672H2.94531V8.37109Z" fill="black"/>
<path d="M4.97656 8.37109H3.96094V9.38672H4.97656V8.37109Z" fill="black"/>
<path d="M7.00781 8.37109H5.99219V9.38672H7.00781V8.37109Z" fill="black"/>
<path d="M9.03906 8.37109H8.02344V9.38672H9.03906V8.37109Z" fill="black"/>
<path d="M2.94531 10.4023H1.92969V11.418H2.94531V10.4023Z" fill="black"/>
<path d="M4.97656 10.4023H3.96094V11.418H4.97656V10.4023Z" fill="black"/>
<path d="M7.00781 10.4023H5.99219V11.418H7.00781V10.4023Z" fill="black"/>
<path d="M9.03906 10.4023H8.02344V11.418H9.03906V10.4023Z" fill="black"/>
<path d="M11.0703 8.37109H10.0547V9.38672H11.0703V8.37109Z" fill="black"/>
</g>
<defs>
<clipPath id="clip0">
<rect width="13" height="13" fill="white" transform="translate(0 0.5)"/>
</clipPath>
</defs>
</svg>
