<svg width="72" height="50" viewBox="0 0 72 50" fill="none" xmlns="http://www.w3.org/2000/svg">
<path d="M51.347 17.8279L35.8326 12.4763C34.3628 11.9739 32.7171 12.0744 31.3102 12.7527L30.5313 13.1296C29.4761 13.6446 28.2324 13.72 27.1269 13.318L25.7953 12.8407C25.7325 12.803 25.6697 12.7653 25.6069 12.7402L17.6675 10.0393C17.479 9.97645 17.2655 9.98901 17.0896 10.0769C16.9137 10.1649 16.7756 10.3156 16.7127 10.5041L10.0422 29.9631C9.90397 30.3525 10.1175 30.7796 10.507 30.9178L18.4589 33.6438C18.5468 33.6815 18.6222 33.6941 18.7102 33.6941C18.8232 33.6941 18.9363 33.669 19.0368 33.6187C19.2126 33.5308 19.3508 33.38 19.4136 33.1916L25.833 14.4738L26.637 14.7627C28.1193 15.2903 29.7901 15.1898 31.2097 14.4989L31.9885 14.122C33.0312 13.607 34.2623 13.5316 35.3552 13.9084L50.2918 19.059C50.2564 19.2634 50.2014 19.5096 50.1174 19.7688C49.933 20.3379 49.6092 20.9695 49.0481 21.3579C48.417 21.7932 47.5408 21.8702 46.4522 21.581C46.2841 21.5363 46.1109 21.4829 45.9327 21.4207L39.4128 19.1972C39.2119 19.1344 38.9983 19.1469 38.8099 19.2474C38.6214 19.3479 38.4958 19.5238 38.433 19.7248C38.4204 19.7625 37.4531 23.3302 34.4382 24.9382C32.5287 25.9683 30.167 26.006 27.4158 25.0638C25.5853 22.9538 25.1111 23.3333 23.6566 20.8198C23.2105 22.1205 23.0731 22.5298 22.9857 22.7759C22.8476 23.1653 25.1111 25.5555 26.9259 26.4833C28.3953 27.2345 29.7901 27.2371 31.084 27.2371C32.5664 27.2371 33.9231 26.9104 35.1542 26.2446C37.8426 24.8 39.1365 22.1619 39.6264 20.8554L45.4176 22.8403C45.8455 22.9878 46.2553 23.0958 46.6469 23.1645C47.9227 23.3883 49.0055 23.1946 49.8898 22.589C50.5542 22.1311 50.9924 21.5 51.2818 20.8728C51.8023 19.7447 51.8415 18.6292 51.8495 18.5565C51.8621 18.2299 51.6485 17.9284 51.347 17.8279Z" fill="#00A86B" fill-opacity="0.7"/>
<path d="M71.2708 28.9707L62.2009 10.5418C62.1129 10.3659 61.9622 10.2277 61.7737 10.1649C61.5853 10.1021 61.3717 10.1147 61.1959 10.2026L53.6459 13.8959C53.269 14.0843 53.1183 14.524 53.2942 14.9009L55.2556 18.9079L62.0878 32.865L59.1356 35.5659C56.6357 37.8648 53.8092 39.7868 50.7566 41.2818L36.2974 48.3543C35.8954 48.5553 35.4431 48.5805 35.016 48.4297C34.5889 48.279 34.2497 47.9775 34.0487 47.5755C33.8477 47.1735 33.8226 46.7212 33.9733 46.2941C34.1241 45.867 34.4256 45.5278 34.8276 45.3268L42.9051 41.3697C43.282 41.1813 43.4328 40.7416 43.2569 40.3647C43.0684 39.9878 42.6162 39.8371 42.2519 40.013L30.368 45.8293C29.5388 46.2313 28.5213 45.8921 28.1193 45.063C27.7173 44.2339 28.0565 43.2289 28.8856 42.8144L40.4932 37.1362C40.87 36.9478 41.0208 36.5081 40.8449 36.1312C40.6565 35.7543 40.2042 35.6036 39.8399 35.7795L31.2473 39.9878L26.8128 42.1486C25.9837 42.5505 24.9662 42.2114 24.5642 41.3823C24.1622 40.5531 24.5014 39.5356 25.3305 39.1336L26.7626 38.4301L37.1516 33.3424C37.5285 33.1539 37.6792 32.7143 37.5033 32.3374C37.3149 31.9605 36.8627 31.8098 36.4984 31.9856L26.1093 37.0734C25.7073 37.2744 25.2551 37.2995 24.828 37.1488C24.4009 36.998 24.0617 36.6965 23.8607 36.2945C23.6597 35.8925 23.6346 35.4403 23.7853 35.0132C23.936 34.586 24.2375 34.2469 24.6395 34.0459L46.6469 23.1645L51.2818 20.8728L55.2469 18.9123C55.2498 18.9108 55.2527 18.9093 55.2556 18.9079C55.6261 18.717 55.7731 18.2812 55.5986 17.9073C55.4102 17.5304 54.958 17.3797 54.5937 17.5556L50.1174 19.7688L46.4522 21.581L23.9863 32.6891C23.22 33.066 22.6421 33.7192 22.3658 34.5232C22.0894 35.3272 22.1396 36.194 22.5165 36.9603C22.8054 37.5633 23.2828 38.0407 23.8607 38.3547C22.9059 39.2969 22.617 40.7667 23.2326 42.0229C23.7853 43.1535 24.9159 43.8068 26.0968 43.8068C26.2349 43.8068 26.3731 43.7942 26.5113 43.7817C26.4108 44.4098 26.4862 45.0756 26.7877 45.7037C27.3404 46.8343 28.471 47.4875 29.6519 47.4875C30.1167 47.4875 30.5941 47.387 31.0463 47.1609L32.4156 46.4826C32.3528 47.073 32.4533 47.6634 32.7297 48.2036C33.1065 48.9699 33.7598 49.5478 34.5638 49.8241C34.9029 49.9372 35.2547 50 35.6064 50C36.0838 50 36.5612 49.8869 37.0009 49.6734L51.4601 42.6008C54.6509 41.0431 57.5779 39.0331 60.1909 36.6337L63.4696 33.6187L70.9191 29.9757C71.296 29.7872 71.4467 29.3476 71.2708 28.9707ZM63.3566 32.0359L54.9775 14.9135L61.1833 11.8859L69.5498 29.0084L63.3566 32.0359Z" fill="#00A86B" fill-opacity="0.7"/>
<path d="M25.833 14.4738L23.6566 20.8198C25.1111 23.3333 25.5853 22.9538 27.4158 25.0638C30.167 26.006 32.5287 25.9683 34.4382 24.9382C37.4531 23.3302 38.4204 19.7625 38.433 19.7248C38.4958 19.5238 38.6214 19.3479 38.8099 19.2474C38.9983 19.1469 39.2119 19.1344 39.4128 19.1972L45.9327 21.4207C46.1109 21.4829 46.2841 21.5363 46.4522 21.581L50.1174 19.7688C50.2014 19.5096 50.2564 19.2634 50.2918 19.059L35.3552 13.9084C34.2623 13.5316 33.0312 13.607 31.9885 14.122L31.2097 14.4989C29.7901 15.1898 28.1193 15.2903 26.637 14.7627L25.833 14.4738Z" fill="#00A86B" fill-opacity="0.7"/>
<path d="M49.8898 22.589C49.0055 23.1946 47.9227 23.3883 46.6469 23.1645L24.6395 34.0459C24.2375 34.2469 23.936 34.586 23.7853 35.0132C23.6346 35.4403 23.6597 35.8925 23.8607 36.2945C24.0617 36.6965 24.4009 36.998 24.828 37.1488C25.2551 37.2995 25.7073 37.2744 26.1093 37.0734L36.4984 31.9856C36.8627 31.8098 37.3149 31.9605 37.5033 32.3374C37.6792 32.7143 37.5285 33.1539 37.1516 33.3424L26.7626 38.4301L25.3305 39.1336C24.5014 39.5356 24.1622 40.5531 24.5642 41.3823C24.9662 42.2114 25.9837 42.5505 26.8128 42.1486L31.2473 39.9878L39.8399 35.7795C40.2042 35.6036 40.6565 35.7543 40.8449 36.1312C41.0208 36.5081 40.87 36.9478 40.4932 37.1362L28.8856 42.8144C28.0565 43.2289 27.7173 44.2339 28.1193 45.063C28.5213 45.8921 29.5388 46.2313 30.368 45.8293L42.2519 40.013C42.6162 39.8371 43.0684 39.9878 43.2569 40.3647C43.4328 40.7416 43.282 41.1813 42.9051 41.3697L34.8276 45.3268C34.4256 45.5278 34.1241 45.867 33.9733 46.2941C33.8226 46.7212 33.8477 47.1735 34.0487 47.5755C34.2497 47.9775 34.5889 48.279 35.016 48.4297C35.4431 48.5805 35.8954 48.5553 36.2974 48.3543L50.7566 41.2818C53.8092 39.7868 56.6357 37.8648 59.1356 35.5659L62.0878 32.865L55.2556 18.9079C55.2527 18.9093 55.2498 18.9108 55.2469 18.9123L51.2818 20.8728C50.9924 21.5 50.5542 22.1311 49.8898 22.589Z" fill="#00A86B" fill-opacity="0.7"/>
<path d="M63.3566 32.0359L54.9775 14.9135L61.1833 11.8859L69.5498 29.0084L63.3566 32.0359Z" fill="#00A86B" fill-opacity="0.7"/>
<path d="M46.5155 8.80638L29.0617 2.78589C27.4082 2.22059 25.5568 2.33365 23.9739 3.09681L23.0977 3.52079C21.9106 4.10022 20.5114 4.18502 19.2678 3.73278L17.7697 3.19574C17.6991 3.15334 17.6284 3.11094 17.5577 3.08268L8.62592 0.0441642C8.41393 -0.0264988 8.17368 -0.0123658 7.97582 0.0865625C7.77797 0.185491 7.62251 0.355081 7.55185 0.56707L0.0474271 22.4585C-0.108032 22.8966 0.132223 23.3771 0.570334 23.5326L9.51628 26.5993C9.61521 26.6417 9.7 26.6559 9.79893 26.6559C9.92612 26.6559 10.0533 26.6276 10.1664 26.5711C10.3642 26.4721 10.5197 26.3026 10.5904 26.0906L17.8121 5.03298L18.7166 5.35803C20.3843 5.9516 22.2639 5.83854 23.8609 5.06124L24.7371 4.63726C25.9101 4.05783 27.2951 3.97303 28.5246 4.39701L45.3283 10.1914C45.2011 10.9263 44.8478 12.1417 43.9292 12.7776C43.1095 13.343 41.9224 13.3712 40.4243 12.8483L33.0895 10.3468C32.8634 10.2762 32.6231 10.2903 32.4111 10.4034C32.1991 10.5164 32.0578 10.7143 31.9871 10.9404C31.973 10.9828 30.8848 14.9965 27.493 16.8054C25.3448 17.9643 22.6879 18.0067 19.5928 16.9468C19.1547 16.7913 18.6742 17.0316 18.5188 17.4697C18.3633 17.9078 18.6035 18.3883 19.0417 18.5438C20.6952 19.1091 22.2639 19.3917 23.7196 19.3917C25.3872 19.3917 26.9135 19.0243 28.2985 18.2752C31.3229 16.65 32.7786 13.6821 33.3297 12.2123L39.8449 14.4453C41.8941 15.1519 43.5759 15.053 44.8761 14.1626C46.9677 12.7211 47.0666 9.75327 47.0808 9.62608C47.0949 9.25863 46.8546 8.91944 46.5155 8.80638ZM9.27602 24.7197L1.92706 22.2041L8.88031 1.9238L16.0314 4.36874C16.0879 4.39701 16.1445 4.42527 16.201 4.45354L16.2293 4.46767L9.27602 24.7197Z" fill="black"/>
<path d="M68.9297 21.342L58.726 0.6095C58.6271 0.411643 58.4575 0.256185 58.2455 0.185522C58.0335 0.114859 57.7932 0.128992 57.5954 0.22792L49.1017 4.38291C48.6777 4.5949 48.5081 5.08954 48.706 5.51352L58.5988 25.7232L55.2776 28.7617C52.4652 31.3479 49.2854 33.5102 45.8512 35.192L29.5846 43.1487C29.1323 43.3748 28.6235 43.403 28.143 43.2335C27.6625 43.0639 27.2809 42.7247 27.0548 42.2724C26.8287 41.8202 26.8004 41.3114 26.97 40.8309C27.1396 40.3504 27.4788 39.9688 27.931 39.7427L37.0183 35.2909C37.4423 35.0789 37.6119 34.5843 37.414 34.1603C37.202 33.7363 36.6933 33.5667 36.2834 33.7646L27.394 38.1175L22.914 40.308C21.9812 40.7603 20.8365 40.3787 20.3842 39.4459C19.932 38.5132 20.3136 37.3826 21.2463 36.9162L34.3048 30.5282C34.7288 30.3162 34.8984 29.8216 34.7006 29.3976C34.4886 28.9736 33.9798 28.8041 33.5699 29.0019L23.9032 33.7363L20.5114 35.3899L18.9144 36.1671C17.9817 36.6194 16.8369 36.2378 16.3847 35.3051C15.9324 34.3723 16.314 33.2276 17.2468 32.7753L18.8579 31.9839L30.5456 26.2602C30.9695 26.0482 31.1391 25.5536 30.9413 25.1296C30.7293 24.7056 30.2205 24.536 29.8107 24.7339L22.3063 28.4083L18.123 30.4576C17.6708 30.6837 17.162 30.712 16.6815 30.5424C16.201 30.3728 15.8194 30.0336 15.5933 29.5814C15.3671 29.1291 15.3389 28.6203 15.5085 28.1398C15.6781 27.6593 16.0172 27.2777 16.4695 27.0516L22.6737 24.0131C23.0977 23.8011 23.2673 23.3065 23.0694 22.8825C22.8574 22.4585 22.3487 22.2889 21.9388 22.4868L15.7346 25.5253C14.8725 25.9493 14.2224 26.6842 13.9115 27.5887C13.6006 28.4931 13.6571 29.4683 14.0811 30.3304C14.4061 31.0087 14.9432 31.5458 15.5933 31.8991C14.5192 32.959 14.1941 34.6126 14.8866 36.0258C15.5085 37.2978 16.7804 38.0327 18.1089 38.0327C18.2643 38.0327 18.4198 38.0185 18.5752 38.0044C18.4622 38.711 18.547 39.46 18.8862 40.1667C19.508 41.4386 20.7799 42.1735 22.1084 42.1735C22.6313 42.1735 23.1683 42.0604 23.6771 41.8061L25.2176 41.0429C25.1469 41.7071 25.26 42.3714 25.5709 42.9791C25.9949 43.8412 26.7298 44.4913 27.6342 44.8022C28.0158 44.9294 28.4115 45 28.8073 45C29.3443 45 29.8813 44.8728 30.376 44.6326L46.6426 36.6759C50.2323 34.9235 53.5252 32.6623 56.4648 29.9629L60.1534 26.5711L68.534 22.4727C68.958 22.2607 69.1276 21.766 68.9297 21.342ZM60.0262 24.7904L50.5997 5.52765L57.5813 2.12169L66.9936 21.3844L60.0262 24.7904Z" fill="black"/>
</svg>
