<svg width="52" height="50" viewBox="0 0 52 50" fill="none" xmlns="http://www.w3.org/2000/svg">
<path d="M45.1593 23.1379H37.5667H11.8253H10.5925C10.2656 23.1375 10.0003 23.4021 10 23.7289V40.3217C9.99965 40.6486 10.2643 40.9138 10.5911 40.9142H42.9858C43.313 40.9142 43.5783 40.6489 43.5783 40.3217C43.5783 39.9946 43.313 39.7293 42.9858 39.7293H36.1709H11.1849V24.3228H44.5654V27.8915V34.6932C44.5651 35.02 44.8297 35.2853 45.1565 35.2856H45.1579C45.4847 35.286 45.75 35.0214 45.7503 34.6945V23.7303C45.7507 23.4035 45.4861 23.1383 45.1593 23.1379Z" fill="#00A86B" fill-opacity="0.7"/>
<path d="M41.14 23.0538L34.9238 21.0557L17.9724 15.607L13.4876 14.1654C13.3342 14.1311 13.1734 14.1589 13.0404 14.2428C12.9076 14.3274 12.8136 14.4611 12.7791 14.6147L10.5076 23.5032C10.4365 23.8227 10.638 24.1394 10.9576 24.2104C11.2771 24.2814 11.5938 24.0799 11.6648 23.7604L11.8253 23.1379L13.807 15.4519L16.3574 16.2769L17.2105 16.5529L37.5667 23.1379L40.8801 24.2097C40.9229 24.2196 40.9667 24.2246 41.0107 24.2242C41.3379 24.2236 41.6027 23.9579 41.6021 23.6307C41.6016 23.3541 41.4098 23.1148 41.14 23.0538Z" fill="#00A86B" fill-opacity="0.7"/>
<path d="M38.6712 22.2923L21.1909 10.0459C20.9025 9.92568 20.5703 10.0492 20.4305 10.3286L16.3812 15.7605C16.2915 15.9264 16.2888 16.116 16.3574 16.2769C16.4083 16.3962 16.4984 16.4998 16.6214 16.5663C16.813 16.6699 17.0363 16.6574 17.2105 16.5529C17.2989 16.4999 17.3746 16.4232 17.4271 16.326C17.4333 16.3147 17.4391 16.3031 17.4444 16.2914V16.2928L17.9724 15.607L21.2455 11.3558L34.9238 21.0557L38.2136 23.3886C38.5164 23.515 38.8643 23.372 38.9906 23.0693C39.1169 22.7666 38.974 22.4187 38.6712 22.2923Z" fill="#00A86B" fill-opacity="0.7"/>
<path d="M38.2012 25.9032H32.7143C32.3872 25.9032 32.1219 26.1685 32.1219 26.4956C32.1219 26.8228 32.3872 27.0881 32.7143 27.0881H38.2012C38.5284 27.0881 38.7937 26.8228 38.7937 26.4956C38.7937 26.1685 38.5284 25.9032 38.2012 25.9032Z" fill="#00A86B" fill-opacity="0.7"/>
<path d="M27.1839 25.9426C23.824 25.9426 21.1004 28.6662 21.1004 32.0261C21.1038 35.3845 23.8255 38.1061 27.1839 38.1096C30.5437 38.1096 33.2674 35.3859 33.2674 32.0261C33.2674 28.6662 30.5437 25.9426 27.1839 25.9426ZM27.1839 37.0035C24.4349 37.0035 22.2064 34.7751 22.2064 32.0261C22.2095 29.2784 24.4362 27.0517 27.1839 27.0487C29.9329 27.0487 32.1613 29.2771 32.1613 32.0261C32.1613 34.7751 29.9329 37.0035 27.1839 37.0035Z" fill="#00A86B" fill-opacity="0.7"/>
<path d="M43.7753 27.8781C40.1113 27.8781 36.1709 28.7436 36.1709 30.6434V39.7293V47.2348C36.1709 49.1345 40.1113 50 43.7753 50C47.4392 50 51.3797 49.1345 51.3797 47.2348V30.6434C51.3797 28.8797 47.9836 28.0074 44.5654 27.8915C44.3017 27.8826 44.0377 27.8781 43.7753 27.8781ZM49.997 47.2244C49.8926 47.6081 47.8194 48.6174 43.7753 48.6174C39.7311 48.6174 37.6579 47.6081 37.5535 47.2348V46.148C39.0246 46.8891 41.4545 47.2348 43.7753 47.2348C46.096 47.2348 48.5266 46.8857 49.997 46.1473V47.2244ZM49.997 44.4592C49.8926 44.8428 47.8194 45.8521 43.7753 45.8521C39.7311 45.8521 37.6579 44.8428 37.5535 44.4695V43.3828C39.0246 44.1239 41.4545 44.4695 43.7753 44.4695C46.096 44.4695 48.5266 44.1204 49.997 43.3821V44.4592ZM49.997 41.6939C49.8926 42.0776 47.8194 43.0869 43.7753 43.0869C39.7311 43.0869 37.6579 42.0776 37.5535 41.7043V40.6176C39.0246 41.3586 41.4545 41.7043 43.7753 41.7043C46.096 41.7043 48.5266 41.3552 49.997 40.6169V41.6939ZM49.997 38.9287C49.8926 39.3124 47.8194 40.3217 43.7753 40.3217C39.7311 40.3217 37.6579 39.3124 37.5535 38.9391V37.8523C39.0246 38.5934 41.4545 38.9391 43.7753 38.9391C46.096 38.9391 48.5266 38.59 49.997 37.8516V38.9287ZM49.997 36.1635C49.8926 36.5471 47.8194 37.5564 43.7753 37.5564C39.7311 37.5564 37.6579 36.5471 37.5535 36.1738V35.0871C39.0246 35.8247 41.4545 36.1738 43.7753 36.1738C46.096 36.1738 48.5266 35.8247 49.997 35.0864V36.1635ZM49.997 33.3982C49.8926 33.7819 47.8194 34.7912 43.7753 34.7912C39.7311 34.7912 37.6579 33.7819 37.5535 33.4086V32.3219C39.0246 33.0595 41.4545 33.4086 43.7753 33.4086C46.096 33.4086 48.5266 33.0595 49.997 32.3212V33.3982ZM43.7753 32.026C39.7373 32.026 37.6648 31.0194 37.5535 30.6558V30.6517C37.6648 30.2666 39.7373 29.2607 43.7753 29.2607C47.7848 29.2607 49.8588 30.2521 49.997 30.6434C49.8588 31.0346 47.7848 32.026 43.7753 32.026Z" fill="#00A86B" fill-opacity="0.7"/>
<path d="M21.6534 36.9634H16.4278L13.9501 34.2535V29.76L16.6863 27.0881H21.6534C21.9806 27.0881 22.2458 26.8228 22.2458 26.4956C22.2458 26.1685 21.9806 25.9032 21.6534 25.9032H16.4458C16.2909 25.9028 16.142 25.9632 16.031 26.0712L12.9429 29.0832C12.8275 29.218 12.7643 29.3897 12.7645 29.5671V34.4837C12.7645 34.6316 12.8198 34.7741 12.9194 34.8833L15.7282 37.9555C15.8404 38.0783 15.9993 38.1484 16.1658 38.1483H21.6534C21.9806 38.1483 22.2458 37.883 22.2458 37.5559C22.2458 37.2287 21.9806 36.9634 21.6534 36.9634Z" fill="#00A86B" fill-opacity="0.7"/>
<path d="M27.5295 31.3348H26.8382C26.6232 31.3348 26.4925 31.2145 26.4925 31.162C26.4925 31.1094 26.6232 30.9892 26.8382 30.9892H28.5665C28.9482 30.9892 29.2578 30.6796 29.2578 30.2978C29.2578 29.9161 28.9482 29.6065 28.5665 29.6065H27.8752C27.8752 29.2248 27.5656 28.9152 27.1839 28.9152C26.8021 28.9152 26.4925 29.2248 26.4925 29.6065V29.6377C25.7258 29.7459 25.1449 30.385 25.1099 31.1585C25.1594 32.0649 25.9315 32.7613 26.8382 32.7174H27.5295C27.7445 32.7174 27.8752 32.8377 27.8752 32.8903C27.8752 32.9428 27.7445 33.0631 27.5295 33.0631H25.8012C25.4195 33.0631 25.1099 33.3726 25.1099 33.7544C25.1099 34.1362 25.4195 34.4457 25.8012 34.4457H26.4925C26.4925 34.8275 26.8021 35.137 27.1839 35.137C27.5656 35.137 27.8752 34.8275 27.8752 34.4457V34.4146C28.6419 34.3063 29.2228 33.6673 29.2578 32.8937C29.2083 31.9873 28.4362 31.2909 27.5295 31.3348Z" fill="#00A86B" fill-opacity="0.7"/>
<path d="M49.997 33.3982C49.8926 33.7819 47.8194 34.7912 43.7753 34.7912C39.7311 34.7912 37.6579 33.7819 37.5535 33.4086V32.3219C39.0246 33.0595 41.4545 33.4086 43.7753 33.4086C46.096 33.4086 48.5266 33.0595 49.997 32.3212V33.3982Z" fill="#00A86B" fill-opacity="0.7"/>
<path d="M43.7753 32.026C39.7373 32.026 37.6648 31.0194 37.5535 30.6558V30.6517C37.6648 30.2666 39.7373 29.2607 43.7753 29.2607C47.7848 29.2607 49.8588 30.2521 49.997 30.6434C49.8588 31.0346 47.7848 32.026 43.7753 32.026Z" fill="#00A86B" fill-opacity="0.7"/>
<path d="M49.997 36.1635C49.8926 36.5471 47.8194 37.5564 43.7753 37.5564C39.7311 37.5564 37.6579 36.5471 37.5535 36.1738V35.0871C39.0246 35.8247 41.4545 36.1738 43.7753 36.1738C46.096 36.1738 48.5266 35.8247 49.997 35.0864V36.1635Z" fill="#00A86B" fill-opacity="0.7"/>
<path d="M49.997 38.9287C49.8926 39.3124 47.8194 40.3217 43.7753 40.3217C39.7311 40.3217 37.6579 39.3124 37.5535 38.9391V37.8523C39.0246 38.5934 41.4545 38.9391 43.7753 38.9391C46.096 38.9391 48.5266 38.59 49.997 37.8516V38.9287Z" fill="#00A86B" fill-opacity="0.7"/>
<path d="M49.997 41.6939C49.8926 42.0776 47.8194 43.0869 43.7753 43.0869C39.7311 43.0869 37.6579 42.0776 37.5535 41.7043V40.6176C39.0246 41.3586 41.4545 41.7043 43.7753 41.7043C46.096 41.7043 48.5266 41.3552 49.997 40.6169V41.6939Z" fill="#00A86B" fill-opacity="0.7"/>
<path d="M49.997 44.4592C49.8926 44.8428 47.8194 45.8521 43.7753 45.8521C39.7311 45.8521 37.6579 44.8428 37.5535 44.4695V43.3828C39.0246 44.1239 41.4545 44.4695 43.7753 44.4695C46.096 44.4695 48.5266 44.1204 49.997 43.3821V44.4592Z" fill="#00A86B" fill-opacity="0.7"/>
<path d="M49.997 47.2244C49.8926 47.6081 47.8194 48.6174 43.7753 48.6174C39.7311 48.6174 37.6579 47.6081 37.5535 47.2348V46.148C39.0246 46.8891 41.4545 47.2348 43.7753 47.2348C46.096 47.2348 48.5266 46.8857 49.997 46.1473V47.2244Z" fill="#00A86B" fill-opacity="0.7"/>
<path fill-rule="evenodd" clip-rule="evenodd" d="M27.1839 37.0035C24.4349 37.0035 22.2064 34.7751 22.2064 32.0261C22.2095 29.2784 24.4362 27.0517 27.1839 27.0487C29.9329 27.0487 32.1613 29.2771 32.1613 32.0261C32.1613 34.7751 29.9329 37.0035 27.1839 37.0035ZM26.8382 31.3348H27.5295C28.4362 31.2909 29.2083 31.9873 29.2578 32.8937C29.2228 33.6673 28.6419 34.3063 27.8752 34.4146V34.4457C27.8752 34.8275 27.5656 35.137 27.1839 35.137C26.8021 35.137 26.4925 34.8275 26.4925 34.4457H25.8012C25.4195 34.4457 25.1099 34.1362 25.1099 33.7544C25.1099 33.3726 25.4195 33.0631 25.8012 33.0631H27.5295C27.7445 33.0631 27.8752 32.9428 27.8752 32.8903C27.8752 32.8377 27.7445 32.7174 27.5295 32.7174H26.8382C25.9315 32.7613 25.1594 32.0649 25.1099 31.1585C25.1449 30.385 25.7258 29.7459 26.4925 29.6377V29.6065C26.4925 29.2248 26.8021 28.9152 27.1839 28.9152C27.5656 28.9152 27.8752 29.2248 27.8752 29.6065H28.5665C28.9482 29.6065 29.2578 29.9161 29.2578 30.2978C29.2578 30.6796 28.9482 30.9892 28.5665 30.9892H26.8382C26.6232 30.9892 26.4925 31.1094 26.4925 31.162C26.4925 31.2145 26.6232 31.3348 26.8382 31.3348Z" fill="#00A86B" fill-opacity="0.7"/>
<path d="M17.9724 15.607L34.9238 21.0557L21.2455 11.3558L17.9724 15.607Z" fill="#00A86B" fill-opacity="0.7"/>
<path d="M13.807 15.4519L11.8253 23.1379H37.5667L17.2105 16.5529C17.0363 16.6574 16.813 16.6699 16.6214 16.5663C16.4984 16.4998 16.4083 16.3962 16.3574 16.2769L13.807 15.4519Z" fill="#00A86B" fill-opacity="0.7"/>
<path fill-rule="evenodd" clip-rule="evenodd" d="M11.1849 39.7293H36.1709V30.6434C36.1709 28.7436 40.1113 27.8781 43.7753 27.8781C44.0377 27.8781 44.3017 27.8826 44.5654 27.8915V24.3228H11.1849V39.7293ZM32.7143 25.9032H38.2012C38.5284 25.9032 38.7937 26.1685 38.7937 26.4956C38.7937 26.8228 38.5284 27.0881 38.2012 27.0881H32.7143C32.3872 27.0881 32.1219 26.8228 32.1219 26.4956C32.1219 26.1685 32.3872 25.9032 32.7143 25.9032ZM21.1004 32.0261C21.1004 28.6662 23.824 25.9426 27.1839 25.9426C30.5437 25.9426 33.2674 28.6662 33.2674 32.0261C33.2674 35.3859 30.5437 38.1096 27.1839 38.1096C23.8255 38.1061 21.1038 35.3845 21.1004 32.0261ZM16.4278 36.9634H21.6534C21.9806 36.9634 22.2458 37.2287 22.2458 37.5559C22.2458 37.883 21.9806 38.1483 21.6534 38.1483H16.1658C15.9993 38.1484 15.8404 38.0783 15.7282 37.9555L12.9194 34.8833C12.8198 34.7741 12.7645 34.6316 12.7645 34.4837V29.5671C12.7643 29.3897 12.8275 29.218 12.9429 29.0832L16.031 26.0712C16.142 25.9632 16.2909 25.9028 16.4458 25.9032H21.6534C21.9806 25.9032 22.2458 26.1685 22.2458 26.4956C22.2458 26.8228 21.9806 27.0881 21.6534 27.0881H16.6863L13.9501 29.76V34.2535L16.4278 36.9634Z" fill="#00A86B" fill-opacity="0.7"/>
<path d="M39.5541 14.78C39.5536 14.78 39.553 14.78 39.5525 14.78H0.666507C0.29884 14.7796 0.000389241 15.0773 3.80553e-07 15.445C3.80553e-07 15.4455 3.80553e-07 15.4461 3.80553e-07 15.4465V34.1118C-0.00038848 34.4795 0.297284 34.778 0.664952 34.7783C0.665438 34.7783 0.666021 34.7783 0.666507 34.7783H27.109C27.4771 34.7783 27.7755 34.4799 27.7755 34.1118C27.7755 33.7438 27.4771 33.4453 27.109 33.4453H1.33301V16.113H38.886V17.7797C38.8857 18.1474 39.1833 18.4458 39.551 18.4462C39.5515 18.4462 39.5521 18.4462 39.5525 18.4462C39.9202 18.4466 40.2187 18.1489 40.2191 17.7813C40.2191 17.7808 40.2191 17.7802 40.2191 17.7797V15.4465C40.2194 15.0789 39.9218 14.7805 39.5541 14.78Z" fill="black"/>
<path d="M35.0324 11.6855L3.9236 4.68605C3.75094 4.64746 3.57002 4.67876 3.42041 4.77316C3.27099 4.86833 3.16532 5.01872 3.12643 5.19157L1.57099 12.1911C1.49108 12.5506 1.71778 12.9068 2.07729 12.9867C2.43679 13.0666 2.79298 12.8399 2.87289 12.4804L4.2829 6.13339L34.74 12.9859C34.7882 12.9971 34.8375 13.0026 34.887 13.0022C35.2551 13.0015 35.5529 12.7026 35.5523 12.3345C35.5518 12.0234 35.3359 11.7541 35.0324 11.6855Z" fill="black"/>
<path d="M31.2551 7.82882L12.5898 0.0516151C12.2654 -0.0836111 11.8916 0.0553093 11.7343 0.369703L10.1788 3.48059C10.0032 3.80548 10.1241 4.21135 10.4491 4.38702C10.774 4.56269 11.1798 4.44175 11.3555 4.11676C11.3624 4.10403 11.3689 4.091 11.375 4.07778V4.07933L12.6512 1.5253L30.7402 9.06219C31.0809 9.20432 31.4722 9.04353 31.6144 8.70289C31.7565 8.36244 31.5957 7.97105 31.2551 7.82882Z" fill="black"/>
<path d="M31.7263 17.8911H25.5536C25.1855 17.8911 24.8871 18.1896 24.8871 18.5576C24.8871 18.9257 25.1855 19.2241 25.5536 19.2241H31.7263C32.0944 19.2241 32.3929 18.9257 32.3929 18.5576C32.3929 18.1896 32.0944 17.8911 31.7263 17.8911Z" fill="black"/>
<path d="M19.3318 17.9353C15.552 17.9353 12.4879 20.9994 12.4879 24.7792C12.4918 28.5574 15.5536 31.6193 19.3318 31.6232C23.1116 31.6232 26.1758 28.5591 26.1758 24.7792C26.1758 20.9994 23.1116 17.9353 19.3318 17.9353ZM19.3318 30.3788C16.2392 30.3788 13.7322 27.8719 13.7322 24.7792C13.7356 21.6881 16.2407 19.1831 19.3318 19.1797C22.4244 19.1797 24.9314 21.6866 24.9314 24.7792C24.9314 27.8719 22.4244 30.3788 19.3318 30.3788Z" fill="black"/>
<path d="M37.9971 20.1128C33.8752 20.1128 29.4422 21.0865 29.4422 23.2237V41.889C29.4422 44.0262 33.8752 44.9999 37.9971 44.9999C42.119 44.9999 46.552 44.0262 46.552 41.889V23.2237C46.552 21.0865 42.119 20.1128 37.9971 20.1128ZM44.9966 41.8773C44.8792 42.3089 42.5468 43.4444 37.9971 43.4444C33.4474 43.4444 31.115 42.3089 30.9976 41.889V40.6664C32.6526 41.5001 35.3863 41.889 37.9971 41.889C40.6079 41.889 43.3424 41.4962 44.9966 40.6656V41.8773ZM44.9966 38.7664C44.8792 39.1981 42.5468 40.3335 37.9971 40.3335C33.4474 40.3335 31.115 39.1981 30.9976 38.7781V37.5555C32.6526 38.3892 35.3863 38.7781 37.9971 38.7781C40.6079 38.7781 43.3424 38.3853 44.9966 37.5547V38.7664ZM44.9966 35.6555C44.8792 36.0872 42.5468 37.2227 37.9971 37.2227C33.4474 37.2227 31.115 36.0872 30.9976 35.6672V34.4446C32.6526 35.2784 35.3863 35.6672 37.9971 35.6672C40.6079 35.6672 43.3424 35.2745 44.9966 34.4439V35.6555ZM44.9966 32.5447C44.8792 32.9763 42.5468 34.1118 37.9971 34.1118C33.4474 34.1118 31.115 32.9763 30.9976 32.5563V31.3338C32.6526 32.1675 35.3863 32.5563 37.9971 32.5563C40.6079 32.5563 43.3424 32.1636 44.9966 31.333V32.5447ZM44.9966 29.4338C44.8792 29.8654 42.5468 31.0009 37.9971 31.0009C33.4474 31.0009 31.115 29.8654 30.9976 29.4454V28.2229C32.6526 29.0527 35.3863 29.4454 37.9971 29.4454C40.6079 29.4454 43.3424 29.0527 44.9966 28.2221V29.4338ZM44.9966 26.3229C44.8792 26.7545 42.5468 27.89 37.9971 27.89C33.4474 27.89 31.115 26.7545 30.9976 26.3346V25.112C32.6526 25.9418 35.3863 26.3346 37.9971 26.3346C40.6079 26.3346 43.3424 25.9418 44.9966 25.1112V26.3229ZM37.9971 24.7791C33.4544 24.7791 31.1228 23.6468 30.9976 23.2377V23.233C31.1228 22.7998 33.4544 21.6682 37.9971 21.6682C42.5079 21.6682 44.841 22.7835 44.9966 23.2237C44.841 23.6639 42.5079 24.7791 37.9971 24.7791Z" fill="black"/>
<path d="M13.11 30.3339H7.23125L4.4439 27.2852V22.23L7.52212 19.2241H13.11C13.4781 19.2241 13.7766 18.9257 13.7766 18.5576C13.7766 18.1896 13.4781 17.8911 13.11 17.8911H7.25147C7.07726 17.8907 6.90976 17.9586 6.78484 18.0801L3.31076 21.4686C3.18098 21.6203 3.10982 21.8135 3.11011 22.013V27.5442C3.11011 27.7105 3.17223 27.8708 3.28432 27.9937L6.4442 31.4499C6.57048 31.5881 6.74916 31.667 6.93649 31.6669H13.11C13.4781 31.6669 13.7766 31.3684 13.7766 31.0004C13.7766 30.6323 13.4782 30.3339 13.11 30.3339Z" fill="black"/>
<path d="M19.7207 24.0016H18.9429C18.7011 24.0016 18.5541 23.8662 18.5541 23.8071C18.5541 23.748 18.7011 23.6127 18.9429 23.6127H20.8872C21.3167 23.6127 21.665 23.2645 21.665 22.835C21.665 22.4055 21.3167 22.0573 20.8872 22.0573H20.1095C20.1095 21.6278 19.7613 21.2795 19.3318 21.2795C18.9023 21.2795 18.5541 21.6278 18.5541 22.0573V22.0923C17.6915 22.2141 17.038 22.933 16.9986 23.8032C17.0543 24.8229 17.9229 25.6064 18.9429 25.557H19.7207C19.9625 25.557 20.1095 25.6923 20.1095 25.7514C20.1095 25.8105 19.9625 25.9459 19.7207 25.9459H17.7764C17.3469 25.9459 16.9986 26.2941 16.9986 26.7236C16.9986 27.1531 17.3469 27.5013 17.7764 27.5013H18.5541C18.5541 27.9308 18.9023 28.279 19.3318 28.279C19.7613 28.279 20.1095 27.9308 20.1095 27.5013V27.4663C20.9721 27.3445 21.6256 26.6256 21.665 25.7553C21.6093 24.7356 20.7407 23.9522 19.7207 24.0016Z" fill="black"/>
</svg>
