<svg width="55" height="50" viewBox="0 0 55 50" fill="none" xmlns="http://www.w3.org/2000/svg">
<path d="M52.2222 16.6667H42.5926V13.7037C42.5901 11.6591 40.9335 10.0025 38.8889 10H25.5556C23.5109 10.0025 21.8544 11.6591 21.8519 13.7037V16.6667H12.2222C10.995 16.6667 10 17.6617 10 18.8889V35.3776C10.0047 36.3173 10.5968 37.1531 11.4815 37.4689V47.7778C11.4815 49.005 12.4765 50 13.7037 50H50.7407C51.9679 50 52.963 49.005 52.963 47.7778V37.4696C53.8477 37.1535 54.4401 36.3173 54.4444 35.3776V18.8889C54.4444 17.6617 53.4494 16.6667 52.2222 16.6667ZM38.1481 16.6667H26.2963V14.4444H38.1481V16.6667Z" fill="#00A86B" fill-opacity="0.7"/>
<path d="M47.5 7.5H36.6667V4.16667C36.6638 1.86646 34.8002 0.00284831 32.5 0H17.5C15.1998 0.00284831 13.3362 1.86646 13.3333 4.16667V7.5H2.5C1.11938 7.5 0 8.61938 0 10V28.5498C0.00528971 29.6069 0.671387 30.5473 1.66667 30.9025V42.5C1.66667 43.8806 2.78605 45 4.16667 45H45.8333C47.2139 45 48.3333 43.8806 48.3333 42.5V30.9033C49.3286 30.5477 49.9951 29.6069 50 28.5498V10C50 8.61938 48.8806 7.5 47.5 7.5ZM15 4.16667C15 2.78605 16.1194 1.66667 17.5 1.66667H32.5C33.8806 1.66667 35 2.78605 35 4.16667V7.5H33.3333V4.16667C33.3333 3.70646 32.9602 3.33333 32.5 3.33333H17.5C17.0398 3.33333 16.6667 3.70646 16.6667 4.16667V7.5H15V4.16667ZM31.6667 7.5H18.3333V5H31.6667V7.5ZM46.6667 42.5C46.6667 42.9602 46.2935 43.3333 45.8333 43.3333H4.16667C3.70646 43.3333 3.33333 42.9602 3.33333 42.5V31.189L21.6667 33.7174V35.8333C21.6667 37.2139 22.786 38.3333 24.1667 38.3333H25.8333C27.2139 38.3333 28.3333 37.2139 28.3333 35.8333V33.7174L46.6667 31.189V42.5ZM26.6667 35.8333C26.6667 36.2935 26.2935 36.6667 25.8333 36.6667H24.1667C23.7065 36.6667 23.3333 36.2935 23.3333 35.8333V30.8333C23.3333 30.3731 23.7065 30 24.1667 30H25.8333C26.2935 30 26.6667 30.3731 26.6667 30.8333V35.8333ZM48.3333 28.5498C48.3337 28.9653 48.0282 29.3176 47.6168 29.3758L47.3857 29.4076L28.3333 32.0349V30.8333C28.3333 29.4527 27.2139 28.3333 25.8333 28.3333H24.1667C22.786 28.3333 21.6667 29.4527 21.6667 30.8333V32.0349L2.38403 29.3758C1.97266 29.318 1.66626 28.9657 1.66667 28.5498V10C1.66667 9.53979 2.03979 9.16667 2.5 9.16667H47.5C47.9602 9.16667 48.3333 9.53979 48.3333 10V28.5498Z" fill="black"/>
</svg>
