<svg width="54" height="50" viewBox="0 0 54 50" fill="none" xmlns="http://www.w3.org/2000/svg">
<path d="M36.1808 10C26.9681 10 19.4469 15.7688 18.9612 23.0123C13.5827 24.7473 10 28.9286 10 33.5783C10.1026 37.0022 11.8667 40.1615 14.7278 42.045V49.3493C14.7278 49.7086 15.0191 49.9999 15.3783 50C15.5424 50 15.7005 49.938 15.8208 49.8264L21.3901 44.7256C22.3479 44.8825 23.3169 44.9609 24.2875 44.9598C30.36 44.9598 35.7037 41.9409 37.7336 37.4126C38.4102 37.3606 39.0869 37.2912 39.7635 37.1784L46.5993 43.433C46.8628 43.6773 47.2745 43.6618 47.5188 43.3984C47.6303 43.278 47.6924 43.1201 47.6924 42.9559V33.9861C51.3618 31.3836 53.4612 27.6621 53.4612 23.741C53.4525 16.1678 45.7058 10 36.1808 10ZM24.2875 43.6586C23.2867 43.6597 22.2879 43.5696 21.3034 43.3896C21.1041 43.3523 20.8988 43.41 20.7482 43.5458L16.0377 47.8832V41.698C16.0373 41.4823 15.9302 41.281 15.7514 41.1602C12.9061 39.243 11.3012 36.4497 11.3012 33.5697C11.3012 29.6139 14.3288 26.0138 18.9178 24.383C18.9623 24.9685 19.0581 25.5491 19.2041 26.1179C19.844 28.758 21.305 31.1271 23.3767 32.8843C23.4981 32.9971 27.905 37.3346 36.2762 37.4387C34.255 41.2122 29.5879 43.6586 24.2875 43.6586ZM46.6687 33.1099C46.49 33.2307 46.3829 33.4321 46.3825 33.6477V41.4551L40.3968 35.9813C40.2764 35.8697 40.1184 35.8078 39.9544 35.8078H39.8329C38.6885 36.0204 37.527 36.1278 36.363 36.1288C30.065 36.1288 26.2567 33.6824 24.3916 32.1123C22.4906 30.4659 21.1101 28.3016 20.4185 25.8837C20.2504 25.17 20.1631 24.4396 20.1583 23.7063C20.2103 16.8879 27.3758 11.2926 36.1808 11.2926C44.9858 11.2926 52.1513 16.8705 52.1513 23.7323C52.1513 27.3237 50.156 30.7416 46.6687 33.1099Z" fill="#00A86B" fill-opacity="0.7"/>
<path d="M46.6687 33.1099C46.49 33.2307 46.3829 33.4321 46.3825 33.6477V41.4551L40.3968 35.9813C40.2764 35.8697 40.1184 35.8078 39.9544 35.8078H39.8329C38.6885 36.0204 37.527 36.1278 36.363 36.1288C30.065 36.1288 26.2567 33.6824 24.3916 32.1123C22.4906 30.4659 21.1101 28.3016 20.4185 25.8837C20.2504 25.17 20.1631 24.4396 20.1583 23.7063C20.2103 16.8879 27.3758 11.2926 36.1808 11.2926C44.9858 11.2926 52.1513 16.8705 52.1513 23.7323C52.1513 27.3237 50.156 30.7416 46.6687 33.1099Z" fill="#00A86B" fill-opacity="0.7"/>
<path d="M24.2875 43.6586C23.2867 43.6597 22.2879 43.5696 21.3034 43.3896C21.1041 43.3523 20.8988 43.41 20.7482 43.5458L16.0377 47.8832V41.698C16.0373 41.4823 15.9302 41.281 15.7514 41.1602C12.9061 39.243 11.3012 36.4497 11.3012 33.5697C11.3012 29.6139 14.3288 26.0138 18.9178 24.383C18.9623 24.9685 19.0581 25.5491 19.2041 26.1179C19.844 28.758 21.305 31.1271 23.3767 32.8843C23.4981 32.9971 27.905 37.3346 36.2762 37.4387C34.255 41.2122 29.5879 43.6586 24.2875 43.6586Z" fill="#00A86B" fill-opacity="0.7"/>
<path d="M29.4534 0C19.0891 0 10.6278 6.4899 10.0813 14.6389C4.03057 16.5907 0 21.2947 0 26.5256C0.115403 30.3775 2.10007 33.9317 5.31879 36.0507V44.2679C5.31879 44.6722 5.64645 44.9999 6.05061 45C6.23518 45 6.41304 44.9302 6.54845 44.8047L12.8139 39.0663C13.8914 39.2428 14.9815 39.331 16.0735 39.3298C22.9049 39.3298 28.9166 35.9335 31.2003 30.8392C31.9615 30.7807 32.7227 30.7026 33.484 30.5757L41.1743 37.6121C41.4707 37.887 41.9338 37.8695 42.2086 37.5732C42.3341 37.4378 42.4039 37.2601 42.4039 37.0754V26.9843C46.5321 24.0565 48.8938 19.8698 48.8938 15.4586C48.8841 6.93882 40.1691 0 29.4534 0ZM16.0735 37.8659C14.9475 37.8672 13.8238 37.7658 12.7163 37.5633C12.4921 37.5214 12.2611 37.5863 12.0917 37.739L6.79243 42.6186V35.6603C6.79195 35.4176 6.67142 35.1911 6.47038 35.0552C3.26935 32.8984 1.46389 29.7559 1.46389 26.5159C1.46389 22.0657 4.86986 18.0156 10.0325 16.1808C10.0826 16.8396 10.1904 17.4927 10.3546 18.1327C11.0745 21.1028 12.7181 23.768 15.0488 25.7449C15.1854 25.8718 20.1431 30.7514 29.5608 30.8685C27.2868 35.1138 22.0364 37.8659 16.0735 37.8659ZM41.2523 25.9986C41.0513 26.1345 40.9308 26.3611 40.9303 26.6037V35.387L34.1964 29.2289C34.061 29.1034 33.8832 29.0338 33.6987 29.0338H33.562C32.2746 29.273 30.9679 29.3937 29.6583 29.3948C22.5731 29.3948 18.2888 26.6427 16.1906 24.8763C14.052 23.0241 12.4989 20.5893 11.7209 17.8692C11.5316 17.0662 11.4334 16.2445 11.4281 15.4196C11.4866 7.74884 19.5478 1.45413 29.4534 1.45413C39.359 1.45413 47.4202 7.72932 47.4202 15.4489C47.4202 19.4892 45.1755 23.3344 41.2523 25.9986Z" fill="black"/>
</svg>
