<svg width="30" height="30" viewBox="0 0 30 30" fill="none" xmlns="http://www.w3.org/2000/svg">
<circle cx="15.6522" cy="14.3479" r="13.0435" fill="white"/>
<path d="M19.4706 7.98145H10.5293C9.1021 7.98145 7.94098 9.14257 7.94098 10.5697V19.5111C7.94098 20.9383 9.1021 22.0997 10.5293 22.0997H19.4706C20.8978 22.0997 22.0593 20.9386 22.0593 19.5111V10.5697C22.0593 9.14257 20.8982 7.98145 19.4706 7.98145ZM15 19.6883C12.4374 19.6883 10.3525 17.6033 10.3525 15.0404C10.3525 12.4779 12.4374 10.3929 15 10.3929C17.5629 10.3929 19.6478 12.4779 19.6478 15.0404C19.6478 17.603 17.5625 19.6883 15 19.6883ZM19.7972 11.3538C19.1906 11.3538 18.6972 10.8605 18.6972 10.2542C18.6972 9.64793 19.1906 9.1546 19.7972 9.1546C20.4035 9.1546 20.8968 9.64793 20.8968 10.2542C20.8968 10.8605 20.4035 11.3538 19.7972 11.3538Z" fill="url(#paint0_linear)"/>
<path d="M15 12.3569C13.5207 12.3569 12.3161 13.5608 12.3161 15.0401C12.3161 16.5201 13.5207 17.7244 15 17.7244C16.48 17.7244 17.6835 16.5201 17.6835 15.0401C17.6835 13.5612 16.4796 12.3569 15 12.3569Z" fill="url(#paint1_linear)"/>
<path d="M15 0C6.71606 0 0 6.71606 0 15C0 23.2839 6.71606 30 15 30C23.2839 30 30 23.2839 30 15C30 6.71606 23.2839 0 15 0ZM24.0229 19.5111C24.0229 22.0215 21.9811 24.0634 19.4707 24.0634H10.5293C8.01923 24.0634 5.97707 22.0215 5.97707 19.5111V10.5698C5.97707 8.05967 8.01923 6.01751 10.5293 6.01751H19.4707C21.9811 6.01751 24.0229 8.05967 24.0229 10.5698V19.5111Z" fill="url(#paint2_linear)"/>
<defs>
<linearGradient id="paint0_linear" x1="15.0001" y1="22.0586" x2="15.0001" y2="8.0911" gradientUnits="userSpaceOnUse">
<stop stop-color="#E09B3D"/>
<stop offset="0.3" stop-color="#C74C4D"/>
<stop offset="0.6" stop-color="#C21975"/>
<stop offset="1" stop-color="#7024C4"/>
</linearGradient>
<linearGradient id="paint1_linear" x1="14.9998" y1="17.7087" x2="14.9998" y2="12.3986" gradientUnits="userSpaceOnUse">
<stop stop-color="#E09B3D"/>
<stop offset="0.3" stop-color="#C74C4D"/>
<stop offset="0.6" stop-color="#C21975"/>
<stop offset="1" stop-color="#7024C4"/>
</linearGradient>
<linearGradient id="paint2_linear" x1="15" y1="29.9127" x2="15" y2="0.233015" gradientUnits="userSpaceOnUse">
<stop stop-color="#E09B3D"/>
<stop offset="0.3" stop-color="#C74C4D"/>
<stop offset="0.6" stop-color="#C21975"/>
<stop offset="1" stop-color="#7024C4"/>
</linearGradient>
</defs>
</svg>
