<svg width="32" height="32" viewBox="0 0 32 32" fill="none" xmlns="http://www.w3.org/2000/svg">
<rect width="32" height="32" rx="3" fill="#00A86B"/>
<path d="M13.1584 9H9.29654C9.17342 9 9.06988 9.08599 9.05695 9.20842C8.94067 10.3089 8.63147 15.5522 12.6464 19.7584C16.9688 24.2866 22.8639 24.1512 24.0642 24.0717C24.1911 24.0633 24.2827 23.9576 24.2827 23.8304V19.8822C24.2827 19.7598 24.1949 19.6554 24.0743 19.6345C23.5803 19.5488 22.3243 19.3211 21.5828 19.1C20.897 18.8955 20.0243 18.4219 19.6266 18.1952C19.5069 18.1271 19.3536 18.1652 19.2821 18.2828L18.1229 20.1879C18.1229 20.1879 16.0153 18.9603 15.0089 17.9329C14.0024 16.9055 12.8612 15.0336 12.8612 15.0336L14.6808 13.8737C14.7937 13.8017 14.8305 13.654 14.7658 13.5368C14.5371 13.1226 14.0349 12.1756 13.8276 11.4899C13.6174 10.7946 13.4668 9.69074 13.4089 9.22211C13.3932 9.09545 13.286 9 13.1584 9Z" stroke="white" stroke-width="1.5"/>
</svg>
