<svg width="78" height="75" viewBox="0 0 78 75" fill="none" xmlns="http://www.w3.org/2000/svg">
<path d="M67.7389 34.7068H56.3501H17.7379H15.8887C15.3985 34.7063 15.0005 35.1032 15 35.5934V60.4826C14.9995 60.9728 15.3964 61.3708 15.8866 61.3713H64.4788C64.9695 61.3713 65.3675 60.9734 65.3675 60.4826C65.3675 59.9919 64.9695 59.5939 64.4788 59.5939H54.2563H16.7774V36.4842H66.8481V41.8373V52.0397C66.8476 52.53 67.2445 52.9279 67.7348 52.9284H67.7368C68.227 52.9289 68.625 52.532 68.6255 52.0418V35.5955C68.626 35.1053 68.2291 34.7075 67.7389 34.7068Z" fill="#00A86B" fill-opacity="0.7"/>
<path d="M61.71 34.5807L52.3857 31.5836L26.9587 23.4104L20.2315 21.2481C20.0013 21.1966 19.76 21.2384 19.5606 21.3642C19.3613 21.4911 19.2204 21.6916 19.1686 21.9221L15.7613 35.2548C15.6548 35.7341 15.9571 36.209 16.4364 36.3156C16.9157 36.4221 17.3907 36.1199 17.4972 35.6405L17.7379 34.7068L20.7106 23.1779L24.5362 24.4154L25.8158 24.8293L56.3501 34.7068L61.3201 36.3146C61.3844 36.3295 61.4501 36.3368 61.5161 36.3363C62.0068 36.3354 62.404 35.9368 62.4032 35.4461C62.4024 35.0312 62.1147 34.6721 61.71 34.5807Z" fill="#00A86B" fill-opacity="0.7"/>
<path d="M58.0068 33.4385L31.7864 15.0688C31.3538 14.8885 30.8554 15.0737 30.6457 15.4929L24.5718 23.6408C24.4373 23.8896 24.4332 24.174 24.5362 24.4154C24.6125 24.5943 24.7477 24.7497 24.9321 24.8494C25.2195 25.0048 25.5545 24.9861 25.8158 24.8293C25.9483 24.7499 26.0619 24.6348 26.1407 24.489C26.1499 24.4721 26.1586 24.4547 26.1666 24.4371V24.4391L26.9587 23.4104L31.8683 17.0337L52.3857 31.5836L57.3203 35.083C57.7745 35.2725 58.2964 35.0581 58.4859 34.6039C58.6754 34.15 58.461 33.6281 58.0068 33.4385Z" fill="#00A86B" fill-opacity="0.7"/>
<path d="M57.3019 38.8548H49.0715C48.5807 38.8548 48.1828 39.2527 48.1828 39.7435C48.1828 40.2342 48.5807 40.6321 49.0715 40.6321H57.3019C57.7926 40.6321 58.1905 40.2342 58.1905 39.7435C58.1905 39.2527 57.7926 38.8548 57.3019 38.8548Z" fill="#00A86B" fill-opacity="0.7"/>
<path d="M40.7758 38.9139C35.736 38.9139 31.6505 42.9994 31.6505 48.0391C31.6557 53.0767 35.7382 57.1592 40.7758 57.1644C45.8156 57.1644 49.9011 53.0789 49.9011 48.0391C49.9011 42.9994 45.8156 38.9139 40.7758 38.9139ZM40.7758 55.5053C36.6523 55.5053 33.3097 52.1626 33.3097 48.0391C33.3142 43.9176 36.6543 40.5775 40.7758 40.573C44.8993 40.573 48.2419 43.9156 48.2419 48.0391C48.2419 52.1626 44.8993 55.5053 40.7758 55.5053Z" fill="#00A86B" fill-opacity="0.7"/>
<path d="M65.6629 41.8172C60.167 41.8172 54.2563 43.1155 54.2563 45.965V59.5939V70.8522C54.2563 73.7017 60.167 75 65.6629 75C71.1588 75 77.0695 73.7017 77.0695 70.8522V45.965C77.0695 43.3196 71.9754 42.0112 66.8481 41.8373C66.4525 41.8238 66.0566 41.8172 65.6629 41.8172ZM74.9956 70.8366C74.839 71.4121 71.7291 72.9261 65.6629 72.9261C59.5966 72.9261 56.4868 71.4121 56.3302 70.8522V69.222C58.5369 70.3337 62.1818 70.8522 65.6629 70.8522C69.144 70.8522 72.7899 70.3285 74.9956 69.221V70.8366ZM74.9956 66.6887C74.839 67.2643 71.7291 68.7782 65.6629 68.7782C59.5966 68.7782 56.4868 67.2643 56.3302 66.7043V65.0742C58.5369 66.1858 62.1818 66.7043 65.6629 66.7043C69.144 66.7043 72.7899 66.1806 74.9956 65.0732V66.6887ZM74.9956 62.5409C74.839 63.1164 71.7291 64.6304 65.6629 64.6304C59.5966 64.6304 56.4868 63.1164 56.3302 62.5564V60.9263C58.5369 62.038 62.1818 62.5564 65.6629 62.5564C69.144 62.5564 72.7899 62.0328 74.9956 60.9253V62.5409ZM74.9956 58.393C74.839 58.9686 71.7291 60.4825 65.6629 60.4825C59.5966 60.4825 56.4868 58.9686 56.3302 58.4086V56.7785C58.5369 57.8901 62.1818 58.4086 65.6629 58.4086C69.144 58.4086 72.7899 57.8849 74.9956 56.7775V58.393ZM74.9956 54.2452C74.839 54.8207 71.7291 56.3347 65.6629 56.3347C59.5966 56.3347 56.4868 54.8207 56.3302 54.2607V52.6306C58.5369 53.7371 62.1818 54.2607 65.6629 54.2607C69.144 54.2607 72.7899 53.7371 74.9956 52.6296V54.2452ZM74.9956 50.0973C74.839 50.6728 71.7291 52.1868 65.6629 52.1868C59.5966 52.1868 56.4868 50.6728 56.3302 50.1129V48.4828C58.5369 49.5892 62.1818 50.1129 65.6629 50.1129C69.144 50.1129 72.7899 49.5892 74.9956 48.4817V50.0973ZM65.6629 48.039C59.606 48.039 56.4972 46.5291 56.3302 45.9837V45.9775C56.4972 45.3999 59.606 43.8911 65.6629 43.8911C71.6773 43.8911 74.7882 45.3781 74.9956 45.965C74.7882 46.552 71.6773 48.039 65.6629 48.039Z" fill="#00A86B" fill-opacity="0.7"/>
<path d="M32.4801 55.4452H24.6417L20.9252 51.3803V44.64L25.0295 40.6321H32.4801C32.9708 40.6321 33.3688 40.2342 33.3688 39.7435C33.3688 39.2527 32.9708 38.8548 32.4801 38.8548H24.6686C24.4364 38.8543 24.213 38.9447 24.0465 39.1068L19.4143 43.6248C19.2413 43.827 19.1464 44.0846 19.1468 44.3507V51.7256C19.1468 51.9473 19.2296 52.1611 19.3791 52.3249L23.5923 56.9332C23.7607 57.1175 23.9989 57.2226 24.2487 57.2225H32.4801C32.9708 57.2225 33.3688 56.8246 33.3688 56.3338C33.3688 55.8431 32.971 55.4452 32.4801 55.4452Z" fill="#00A86B" fill-opacity="0.7"/>
<path d="M41.2943 47.0022H40.2573C39.9348 47.0022 39.7388 46.8218 39.7388 46.743C39.7388 46.6642 39.9348 46.4837 40.2573 46.4837H42.8497C43.4224 46.4837 43.8867 46.0194 43.8867 45.4468C43.8867 44.8741 43.4224 44.4098 42.8497 44.4098H41.8127C41.8127 43.8372 41.3484 43.3729 40.7758 43.3729C40.2031 43.3729 39.7388 43.8372 39.7388 44.4098V44.4565C38.5887 44.6189 37.7174 45.5774 37.6649 46.7378C37.7392 48.0974 38.8972 49.142 40.2573 49.0761H41.2943C41.6168 49.0761 41.8127 49.2566 41.8127 49.3354C41.8127 49.4142 41.6168 49.5946 41.2943 49.5946H38.7019C38.1292 49.5946 37.6649 50.0589 37.6649 50.6316C37.6649 51.2043 38.1292 51.6686 38.7019 51.6686H39.7388C39.7388 52.2412 40.2031 52.7055 40.7758 52.7055C41.3484 52.7055 41.8127 52.2412 41.8127 51.6686V51.6219C42.9629 51.4595 43.8342 50.5009 43.8867 49.3406C43.8124 47.981 42.6544 46.9364 41.2943 47.0022Z" fill="#00A86B" fill-opacity="0.7"/>
<path d="M74.9956 50.0973C74.839 50.6728 71.7291 52.1868 65.6629 52.1868C59.5966 52.1868 56.4868 50.6728 56.3302 50.1129V48.4828C58.5369 49.5892 62.1818 50.1129 65.6629 50.1129C69.144 50.1129 72.7899 49.5892 74.9956 48.4817V50.0973Z" fill="#00A86B" fill-opacity="0.7"/>
<path d="M65.6629 48.039C59.606 48.039 56.4972 46.5291 56.3302 45.9837V45.9775C56.4972 45.3999 59.606 43.8911 65.6629 43.8911C71.6773 43.8911 74.7882 45.3781 74.9956 45.965C74.7882 46.552 71.6773 48.039 65.6629 48.039Z" fill="#00A86B" fill-opacity="0.7"/>
<path d="M74.9956 54.2452C74.839 54.8207 71.7291 56.3347 65.6629 56.3347C59.5966 56.3347 56.4868 54.8207 56.3302 54.2607V52.6306C58.5369 53.7371 62.1818 54.2607 65.6629 54.2607C69.144 54.2607 72.7899 53.7371 74.9956 52.6296V54.2452Z" fill="#00A86B" fill-opacity="0.7"/>
<path d="M74.9956 58.393C74.839 58.9686 71.7291 60.4825 65.6629 60.4825C59.5966 60.4825 56.4868 58.9686 56.3302 58.4086V56.7785C58.5369 57.8901 62.1818 58.4086 65.6629 58.4086C69.144 58.4086 72.7899 57.8849 74.9956 56.7775V58.393Z" fill="#00A86B" fill-opacity="0.7"/>
<path d="M74.9956 62.5409C74.839 63.1164 71.7291 64.6304 65.6629 64.6304C59.5966 64.6304 56.4868 63.1164 56.3302 62.5564V60.9263C58.5369 62.038 62.1818 62.5564 65.6629 62.5564C69.144 62.5564 72.7899 62.0328 74.9956 60.9253V62.5409Z" fill="#00A86B" fill-opacity="0.7"/>
<path d="M74.9956 66.6887C74.839 67.2643 71.7291 68.7782 65.6629 68.7782C59.5966 68.7782 56.4868 67.2643 56.3302 66.7043V65.0742C58.5369 66.1858 62.1818 66.7043 65.6629 66.7043C69.144 66.7043 72.7899 66.1806 74.9956 65.0732V66.6887Z" fill="#00A86B" fill-opacity="0.7"/>
<path d="M74.9956 70.8366C74.839 71.4121 71.7291 72.9261 65.6629 72.9261C59.5966 72.9261 56.4868 71.4121 56.3302 70.8522V69.222C58.5369 70.3337 62.1818 70.8522 65.6629 70.8522C69.144 70.8522 72.7899 70.3285 74.9956 69.221V70.8366Z" fill="#00A86B" fill-opacity="0.7"/>
<path fill-rule="evenodd" clip-rule="evenodd" d="M40.7758 55.5053C36.6523 55.5053 33.3097 52.1626 33.3097 48.0391C33.3142 43.9176 36.6543 40.5775 40.7758 40.573C44.8993 40.573 48.2419 43.9156 48.2419 48.0391C48.2419 52.1626 44.8993 55.5053 40.7758 55.5053ZM40.2573 47.0022H41.2943C42.6544 46.9364 43.8124 47.981 43.8867 49.3406C43.8342 50.5009 42.9629 51.4595 41.8127 51.6219V51.6686C41.8127 52.2412 41.3484 52.7055 40.7758 52.7055C40.2031 52.7055 39.7388 52.2412 39.7388 51.6686H38.7019C38.1292 51.6686 37.6649 51.2043 37.6649 50.6316C37.6649 50.0589 38.1292 49.5946 38.7019 49.5946H41.2943C41.6168 49.5946 41.8127 49.4142 41.8127 49.3354C41.8127 49.2566 41.6168 49.0761 41.2943 49.0761H40.2573C38.8972 49.142 37.7392 48.0974 37.6649 46.7378C37.7174 45.5774 38.5887 44.6189 39.7388 44.4565V44.4098C39.7388 43.8372 40.2031 43.3729 40.7758 43.3729C41.3484 43.3729 41.8127 43.8372 41.8127 44.4098H42.8497C43.4224 44.4098 43.8867 44.8741 43.8867 45.4468C43.8867 46.0194 43.4224 46.4837 42.8497 46.4837H40.2573C39.9348 46.4837 39.7388 46.6642 39.7388 46.743C39.7388 46.8218 39.9348 47.0022 40.2573 47.0022Z" fill="#00A86B" fill-opacity="0.7"/>
<path d="M26.9587 23.4104L52.3857 31.5836L31.8683 17.0337L26.9587 23.4104Z" fill="#00A86B" fill-opacity="0.7"/>
<path d="M20.7106 23.1779L17.7379 34.7068H56.3501L25.8158 24.8293C25.5545 24.9861 25.2195 25.0048 24.9321 24.8494C24.7477 24.7497 24.6125 24.5943 24.5362 24.4154L20.7106 23.1779Z" fill="#00A86B" fill-opacity="0.7"/>
<path fill-rule="evenodd" clip-rule="evenodd" d="M16.7774 59.5939H54.2563V45.965C54.2563 43.1155 60.167 41.8172 65.6629 41.8172C66.0566 41.8172 66.4525 41.8238 66.8481 41.8373V36.4842H16.7774V59.5939ZM49.0715 38.8548H57.3019C57.7926 38.8548 58.1905 39.2527 58.1905 39.7435C58.1905 40.2342 57.7926 40.6321 57.3019 40.6321H49.0715C48.5807 40.6321 48.1828 40.2342 48.1828 39.7435C48.1828 39.2527 48.5807 38.8548 49.0715 38.8548ZM31.6505 48.0391C31.6505 42.9994 35.736 38.9139 40.7758 38.9139C45.8156 38.9139 49.9011 42.9994 49.9011 48.0391C49.9011 53.0789 45.8156 57.1644 40.7758 57.1644C35.7382 57.1592 31.6557 53.0767 31.6505 48.0391ZM24.6417 55.4452H32.4801C32.971 55.4452 33.3688 55.8431 33.3688 56.3338C33.3688 56.8246 32.9708 57.2225 32.4801 57.2225H24.2487C23.9989 57.2226 23.7607 57.1175 23.5923 56.9332L19.3791 52.3249C19.2296 52.1611 19.1468 51.9473 19.1468 51.7256V44.3507C19.1464 44.0846 19.2413 43.827 19.4143 43.6248L24.0465 39.1068C24.213 38.9447 24.4364 38.8543 24.6686 38.8548H32.4801C32.9708 38.8548 33.3688 39.2527 33.3688 39.7435C33.3688 40.2342 32.9708 40.6321 32.4801 40.6321H25.0295L20.9252 44.64V51.3803L24.6417 55.4452Z" fill="#00A86B" fill-opacity="0.7"/>
<path d="M59.3312 22.1699C59.3304 22.1699 59.3296 22.1699 59.3288 22.1699H0.999761C0.448259 22.1693 0.000583862 22.6158 5.7083e-07 23.1673C5.7083e-07 23.1681 5.7083e-07 23.169 5.7083e-07 23.1697V51.1676C-0.00058272 51.7191 0.445926 52.1668 0.997428 52.1674C0.998157 52.1674 0.999032 52.1674 0.999761 52.1674H40.6635C41.2156 52.1674 41.6633 51.7197 41.6633 51.1676C41.6633 50.6155 41.2156 50.1679 40.6635 50.1679H1.99952V24.1694H58.3291V26.6694C58.3285 27.2209 58.775 27.6686 59.3265 27.6692C59.3272 27.6692 59.3281 27.6692 59.3288 27.6692C59.8803 27.6698 60.328 27.2233 60.3286 26.6718C60.3286 26.671 60.3286 26.6702 60.3286 26.6694V23.1697C60.3292 22.6182 59.8827 22.1707 59.3312 22.1699Z" fill="black"/>
<path d="M52.5487 17.5283L5.88547 7.02908C5.62649 6.97118 5.35511 7.01814 5.13069 7.15973C4.90656 7.30249 4.74805 7.52808 4.68972 7.78735L2.35656 18.2866C2.23669 18.8258 2.57675 19.3601 3.11601 19.48C3.65526 19.5999 4.18955 19.2598 4.30942 18.7206L6.42443 9.20008L52.1101 19.4788C52.1824 19.4956 52.2564 19.5039 52.3306 19.5033C52.8827 19.5023 53.3295 19.0539 53.3286 18.5018C53.3277 18.035 53.004 17.6311 52.5487 17.5283Z" fill="black"/>
<path d="M46.8825 11.7432L18.8845 0.0774227C18.3979 -0.125417 17.8372 0.082964 17.6013 0.554555L15.2681 5.22088C15.0046 5.70822 15.186 6.31703 15.6735 6.58053C16.1609 6.84403 16.7697 6.66263 17.0332 6.17514C17.0435 6.15604 17.0533 6.1365 17.0623 6.11667V6.119L18.9767 2.28795L46.1102 13.5933C46.6212 13.8065 47.2083 13.5653 47.4215 13.0543C47.6347 12.5437 47.3935 11.9566 46.8825 11.7432Z" fill="black"/>
<path d="M47.5895 26.8364H38.3303C37.7782 26.8364 37.3306 27.2841 37.3306 27.8362C37.3306 28.3883 37.7782 28.8359 38.3303 28.8359H47.5895C48.1416 28.8359 48.5892 28.3883 48.5892 27.8362C48.5892 27.2841 48.1416 26.8364 47.5895 26.8364Z" fill="black"/>
<path d="M28.9979 26.9028C23.3281 26.9028 18.7319 31.499 18.7319 37.1687C18.7378 42.836 23.3306 47.4288 28.9979 47.4347C34.6676 47.4347 39.2638 42.8385 39.2638 37.1687C39.2638 31.499 34.6676 26.9028 28.9979 26.9028ZM28.9979 45.5681C24.3589 45.5681 20.5985 41.8077 20.5985 37.1687C20.6036 32.532 24.3611 28.7745 28.9979 28.7694C33.6368 28.7694 37.3972 32.5298 37.3972 37.1687C37.3972 41.8077 33.6368 45.5681 28.9979 45.5681Z" fill="black"/>
<path d="M56.9955 30.1692C50.8126 30.1692 44.1631 31.6297 44.1631 34.8355V62.8335C44.1631 66.0392 50.8126 67.4998 56.9955 67.4998C63.1784 67.4998 69.8279 66.0392 69.8279 62.8335V34.8355C69.8279 31.6297 63.1784 30.1692 56.9955 30.1692ZM67.4947 62.816C67.3186 63.4634 63.82 65.1666 56.9955 65.1666C50.171 65.1666 46.6724 63.4634 46.4962 62.8335V60.9996C48.9787 62.2502 53.0793 62.8335 56.9955 62.8335C60.9117 62.8335 65.0134 62.2443 67.4947 60.9984V62.816ZM67.4947 58.1496C67.3186 58.7971 63.82 60.5003 56.9955 60.5003C50.171 60.5003 46.6724 58.7971 46.4962 58.1671V56.3333C48.9787 57.5839 53.0793 58.1671 56.9955 58.1671C60.9117 58.1671 65.0134 57.578 67.4947 56.3321V58.1496ZM67.4947 53.4833C67.3186 54.1308 63.82 55.834 56.9955 55.834C50.171 55.834 46.6724 54.1308 46.4962 53.5008V51.667C48.9787 52.9175 53.0793 53.5008 56.9955 53.5008C60.9117 53.5008 65.0134 52.9117 67.4947 51.6658V53.4833ZM67.4947 48.817C67.3186 49.4644 63.82 51.1677 56.9955 51.1677C50.171 51.1677 46.6724 49.4644 46.4962 48.8345V47.0006C48.9787 48.2512 53.0793 48.8345 56.9955 48.8345C60.9117 48.8345 65.0134 48.2454 67.4947 46.9995V48.817ZM67.4947 44.1507C67.3186 44.7981 63.82 46.5013 56.9955 46.5013C50.171 46.5013 46.6724 44.7981 46.4962 44.1682V42.3343C48.9787 43.579 53.0793 44.1682 56.9955 44.1682C60.9117 44.1682 65.0134 43.579 67.4947 42.3331V44.1507ZM67.4947 39.4843C67.3186 40.1318 63.82 41.835 56.9955 41.835C50.171 41.835 46.6724 40.1318 46.4962 39.5018V37.668C48.9787 38.9127 53.0793 39.5018 56.9955 39.5018C60.9117 39.5018 65.0134 38.9127 67.4947 37.6668V39.4843ZM56.9955 37.1687C50.1815 37.1687 46.6841 35.4701 46.4962 34.8565V34.8495C46.6841 34.1997 50.1815 32.5024 56.9955 32.5024C63.7617 32.5024 67.2614 34.1752 67.4947 34.8355C67.2614 35.4958 63.7617 37.1687 56.9955 37.1687Z" fill="black"/>
<path d="M19.6649 45.5006H10.8468L6.66573 40.9276V33.3448L11.2831 28.8359H19.6649C20.217 28.8359 20.6647 28.3883 20.6647 27.8362C20.6647 27.2841 20.217 26.8364 19.6649 26.8364H10.8771C10.6158 26.8358 10.3645 26.9376 10.1771 27.1199L4.96602 32.2027C4.77135 32.4302 4.6646 32.7199 4.66504 33.0193V41.316C4.66504 41.5655 4.75822 41.806 4.92635 41.9903L9.66617 47.1746C9.8556 47.382 10.1236 47.5002 10.4046 47.5001H19.6649C20.217 47.5001 20.6647 47.0524 20.6647 46.5003C20.6647 45.9482 20.2172 45.5006 19.6649 45.5006Z" fill="black"/>
<path d="M29.5811 36.0025H28.4145C28.0517 36.0025 27.8312 35.7995 27.8312 35.7108C27.8312 35.6222 28.0517 35.4192 28.4145 35.4192H31.331C31.9752 35.4192 32.4975 34.8968 32.4975 34.2526C32.4975 33.6084 31.9752 33.086 31.331 33.086H30.1644C30.1644 32.4418 29.642 31.9194 28.9978 31.9194C28.3535 31.9194 27.8312 32.4418 27.8312 33.086V33.1385C26.5373 33.3212 25.5571 34.3996 25.498 35.705C25.5816 37.2345 26.8844 38.4097 28.4145 38.3356H29.5811C29.9439 38.3356 30.1644 38.5386 30.1644 38.6273C30.1644 38.7159 29.9439 38.9189 29.5811 38.9189H26.6646C26.0204 38.9189 25.498 39.4413 25.498 40.0855C25.498 40.7297 26.0204 41.2521 26.6646 41.2521H27.8312C27.8312 41.8963 28.3535 42.4187 28.9978 42.4187C29.642 42.4187 30.1644 41.8963 30.1644 41.2521V41.1996C31.4583 41.0169 32.4385 39.9385 32.4975 38.6331C32.414 37.1036 31.1112 35.9284 29.5811 36.0025Z" fill="black"/>
</svg>
