<svg width="82" height="75" viewBox="0 0 82 75" fill="none" xmlns="http://www.w3.org/2000/svg">
<path d="M78.3333 25H63.8889V20.5556C63.8851 17.4886 61.4003 15.0038 58.3333 15H38.3333C35.2664 15.0038 32.7816 17.4886 32.7778 20.5556V25H18.3333C16.4925 25 15 26.4925 15 28.3333V53.0664C15.0071 54.4759 15.8952 55.7297 17.2222 56.2033V71.6667C17.2222 73.5075 18.7147 75 20.5556 75H76.1111C77.9519 75 79.4444 73.5075 79.4444 71.6667V56.2044C80.7715 55.7303 81.6602 54.4759 81.6667 53.0664V28.3333C81.6667 26.4925 80.1741 25 78.3333 25ZM57.2222 25H39.4444V21.6667H57.2222V25Z" fill="#00A86B" fill-opacity="0.7"/>
<path d="M71.25 11.25H55V6.25C54.9957 2.79968 52.2003 0.00427247 48.75 0H26.25C22.7997 0.00427247 20.0043 2.79968 20 6.25V11.25H3.75C1.67908 11.25 0 12.9291 0 15V42.8247C0.00793456 44.4104 1.00708 45.8209 2.5 46.3538V63.75C2.5 65.8209 4.17908 67.5 6.25 67.5H68.75C70.8209 67.5 72.5 65.8209 72.5 63.75V46.355C73.9929 45.8215 74.9927 44.4104 75 42.8247V15C75 12.9291 73.3209 11.25 71.25 11.25ZM22.5 6.25C22.5 4.17908 24.1791 2.5 26.25 2.5H48.75C50.8209 2.5 52.5 4.17908 52.5 6.25V11.25H50V6.25C50 5.55969 49.4403 5 48.75 5H26.25C25.5597 5 25 5.55969 25 6.25V11.25H22.5V6.25ZM47.5 11.25H27.5V7.5H47.5V11.25ZM70 63.75C70 64.4403 69.4403 65 68.75 65H6.25C5.55969 65 5 64.4403 5 63.75V46.7834L32.5 50.5762V53.75C32.5 55.8209 34.1791 57.5 36.25 57.5H38.75C40.8209 57.5 42.5 55.8209 42.5 53.75V50.5762L70 46.7834V63.75ZM40 53.75C40 54.4403 39.4403 55 38.75 55H36.25C35.5597 55 35 54.4403 35 53.75V46.25C35 45.5597 35.5597 45 36.25 45H38.75C39.4403 45 40 45.5597 40 46.25V53.75ZM72.5 42.8247C72.5006 43.4479 72.0422 43.9764 71.4252 44.0637L71.0785 44.1113L42.5 48.0524V46.25C42.5 44.1791 40.8209 42.5 38.75 42.5H36.25C34.1791 42.5 32.5 44.1791 32.5 46.25V48.0524L3.57605 44.0637C2.95898 43.9771 2.49939 43.4485 2.5 42.8247V15C2.5 14.3097 3.05969 13.75 3.75 13.75H71.25C71.9403 13.75 72.5 14.3097 72.5 15V42.8247Z" fill="black"/>
</svg>
