<svg width="30" height="30" viewBox="0 0 30 30" fill="none" xmlns="http://www.w3.org/2000/svg">
<path d="M15 30C23.2843 30 30 23.2843 30 15C30 6.71573 23.2843 0 15 0C6.71573 0 0 6.71573 0 15C0 23.2843 6.71573 30 15 30Z" fill="#4E76A1"/>
<path fill-rule="evenodd" clip-rule="evenodd" d="M14.4334 21.579H15.6108C15.6108 21.579 15.9664 21.5399 16.1479 21.3442C16.3151 21.1645 16.3097 20.8271 16.3097 20.8271C16.3097 20.8271 16.2867 19.2473 17.0199 19.0147C17.7426 18.7856 18.6708 20.5415 19.6545 21.2167C20.3984 21.7276 20.9636 21.6156 20.9636 21.6156L23.5939 21.579C23.5939 21.579 24.9699 21.4942 24.3175 20.4123C24.264 20.3238 23.9375 19.6121 22.3618 18.1494C20.7125 16.6186 20.9334 16.8662 22.9201 14.2183C24.13 12.6056 24.6138 11.6211 24.4627 11.1994C24.3186 10.7978 23.4287 10.904 23.4287 10.904L20.4671 10.9224C20.4671 10.9224 20.2476 10.8925 20.0847 10.9898C19.9256 11.0853 19.8232 11.3077 19.8232 11.3077C19.8232 11.3077 19.3545 12.5556 18.7293 13.6169C17.4106 15.8563 16.8833 15.9745 16.6677 15.8354C16.1664 15.5114 16.2915 14.5335 16.2915 13.8388C16.2915 11.6687 16.6207 10.7639 15.6506 10.5296C15.3287 10.4518 15.0918 10.4005 14.2685 10.3922C13.2117 10.3812 12.3173 10.3954 11.8109 10.6435C11.474 10.8085 11.2141 11.1762 11.3724 11.1973C11.5681 11.2235 12.0114 11.3168 12.2465 11.6369C12.5499 12.0497 12.5393 12.9771 12.5393 12.9771C12.5393 12.9771 12.7136 15.5317 12.132 15.8491C11.7328 16.0667 11.1852 15.6223 10.0095 13.5907C9.40706 12.55 8.95223 11.3997 8.95223 11.3997C8.95223 11.3997 8.86452 11.1847 8.7081 11.0698C8.51826 10.9305 8.25301 10.8861 8.25301 10.8861L5.43873 10.9045C5.43873 10.9045 5.01626 10.9163 4.86117 11.1C4.7232 11.2634 4.85021 11.6013 4.85021 11.6013C4.85021 11.6013 7.0535 16.7561 9.54824 19.3538C11.8358 21.7354 14.4334 21.579 14.4334 21.579Z" fill="white"/>
</svg>
